# Blender 4.4.3
# www.blender.org
mtllib Bush.mtl
o Bush
v -0.000000 -0.883148 0.000000
v 0.037885 -0.997489 -0.190877
v 0.149003 -0.922963 -0.101103
v 0.161189 -0.842394 0.032040
v 0.089098 -0.821825 0.133294
v -0.032755 -0.858733 0.164297
v -0.135066 -0.831457 0.089829
v -0.172408 -0.901795 -0.035042
v -0.106596 -0.986110 -0.160149
v 0.161066 -1.016105 -0.388847
v 0.280196 -0.956651 -0.280196
v 0.337034 -0.880713 -0.139604
v 0.337670 -0.815208 -0.000000
v 0.303075 -0.791974 0.125538
v 0.247046 -0.777942 0.247046
v 0.123851 -0.781334 0.299004
v 0.000000 -0.766730 0.317590
v -0.117818 -0.743270 0.284437
v -0.219872 -0.750691 0.219872
v -0.320269 -0.836904 0.132660
v -0.368860 -0.890506 0.000000
v -0.357766 -0.934887 -0.148191
v -0.296487 -1.012271 -0.296487
v -0.166459 -1.050128 -0.401866
v -0.000000 -1.067603 -0.442216
v 0.238790 -0.933863 -0.576489
v 0.426267 -0.902202 -0.426267
v 0.463179 -0.750311 -0.191855
v 0.551188 -0.750594 -0.000000
v 0.480745 -0.778766 0.199131
v 0.355763 -0.752980 0.355763
v 0.169349 -0.662295 0.408846
v 0.000000 -0.655423 0.437940
v -0.177315 -0.693448 0.428077
v -0.337838 -0.715040 0.337838
v -0.476393 -0.771717 0.197329
v -0.555979 -0.832081 0.000000
v -0.529506 -0.857754 -0.219328
v -0.415488 -0.879389 -0.415488
v -0.243791 -0.953423 -0.588564
v -0.000000 -0.932768 -0.623256
v 0.283027 -0.739586 -0.683288
v 0.481417 -0.680827 -0.481417
v 0.630706 -0.682672 -0.261247
v 0.665357 -0.665357 -0.000000
v 0.659704 -0.689878 0.273258
v 0.470999 -0.666093 0.470999
v 0.225120 -0.588266 0.543487
v 0.000000 -0.632235 0.632235
v -0.266138 -0.695452 0.642514
v -0.434485 -0.614454 0.434485
v -0.661048 -0.715513 0.273815
v -0.749071 -0.749071 0.000000
v -0.651614 -0.705302 -0.269907
v -0.496577 -0.702266 -0.496577
v -0.299793 -0.783397 -0.723764
v -0.000000 -0.762384 -0.762384
v 0.291100 -0.508270 -0.702777
v 0.547383 -0.517248 -0.547383
v 0.729820 -0.527828 -0.302301
v 0.825137 -0.551339 -0.000000
v 0.740200 -0.535336 0.306601
v 0.625834 -0.591380 0.625834
v 0.298887 -0.521866 0.721576
v 0.000000 -0.539716 0.807742
v -0.326790 -0.570587 0.788941
v -0.543131 -0.513230 0.543131
v -0.787202 -0.569329 0.326070
v -0.937586 -0.626475 0.000000
v -0.784046 -0.567047 -0.324762
v -0.600456 -0.567400 -0.600456
v -0.298655 -0.521462 -0.721017
v -0.000000 -0.557079 -0.833728
v 0.304312 -0.329385 -0.734673
v 0.583130 -0.341590 -0.583130
v 0.883916 -0.396296 -0.366130
v 0.976453 -0.404460 -0.000000
v 0.895092 -0.401307 0.370759
v 0.783410 -0.458911 0.783410
v 0.368748 -0.399130 0.890237
v 0.000000 -0.373954 0.902805
v -0.358974 -0.388550 0.866639
v -0.654068 -0.383144 0.654068
v -0.887787 -0.398032 0.367733
v -1.028307 -0.425939 0.000000
v -0.907634 -0.406930 -0.375954
v -0.551695 -0.323175 -0.551695
v -0.307002 -0.332296 -0.741168
v -0.000000 -0.367170 -0.886426
v 0.351123 -0.182508 -0.847685
v 0.665958 -0.169878 -0.676067
v 1.002575 -0.215856 -0.415280
v 1.058697 -0.210588 -0.000000
v 0.868363 -0.186960 0.359688
v 0.830942 -0.233748 0.830942
v 0.426433 -0.221652 1.029500
v 0.000000 -0.201123 1.011115
v -0.416009 -0.216234 1.004335
v -0.759317 -0.213599 0.759317
v -0.976079 -0.210151 0.404305
v -1.052682 -0.209391 0.000000
v -0.894579 -0.192604 -0.370547
v -0.572483 -0.161042 -0.572483
v -0.358613 -0.186401 -0.865768
v -0.000000 -0.191421 -0.962340
v 0.382916 0.000000 -0.924441
v 0.681884 0.000000 -0.678715
v 0.920766 0.000000 -0.381394
v 1.032755 0.000000 -0.000000
v 0.868063 0.000000 0.359564
v 0.851107 0.000000 0.851107
v 0.441045 0.000000 1.064778
v 0.000000 0.000000 1.008398
v -0.433845 0.000000 1.047395
v -0.805636 0.000000 0.805636
v -1.012301 0.000000 0.419309
v -1.085145 0.000000 0.000000
v -0.791696 0.000000 -0.327931
v -0.609740 0.000000 -0.609740
v -0.377326 0.000000 -0.910946
v -0.000000 0.000000 -0.915122
v 0.349728 0.181783 -0.844319
v 0.600888 0.169033 -0.600888
v 0.888886 0.191378 -0.368189
v 1.029492 0.204779 -0.000000
v 0.890681 0.191765 0.368932
v 0.781527 0.219847 0.781527
v 0.406493 0.211288 0.981361
v 0.000000 0.178839 0.899086
v -0.427715 0.222319 1.032596
v -0.819796 0.230612 0.819796
v -1.034853 0.222805 0.428650
v -1.070128 0.212862 0.000000
v -0.796140 0.171410 -0.329772
v -0.635963 0.178899 -0.635963
v -0.361484 0.187894 -0.872701
v -0.000000 0.178505 -0.897405
v 0.309879 0.335411 -0.748115
v 0.677180 0.396683 -0.677180
v 0.835292 0.374496 -0.345989
v 0.873646 0.361876 -0.000000
v 0.798457 0.357982 0.330732
v 0.570474 0.334176 0.570474
v 0.313324 0.339139 0.756430
v 0.000000 0.347175 0.838154
v -0.378868 0.410084 0.914668
v -0.710753 0.416349 0.710753
v -0.929268 0.416629 0.384915
v -0.929884 0.385171 0.000000
v -0.791563 0.354891 -0.327876
v -0.601088 0.352109 -0.601088
v -0.345957 0.374461 -0.835214
v -0.000000 0.337820 -0.815570
v 0.346526 0.605047 -0.751398
v 0.632995 0.598147 -0.632995
v 0.719483 0.520352 -0.298019
v 0.751298 0.502001 -0.000000
v 0.726031 0.525088 0.300732
v 0.547684 0.517533 0.547684
v 0.260710 0.455209 0.629410
v 0.000000 0.530292 0.793638
v -0.299172 0.522365 0.722265
v -0.578854 0.546986 0.578854
v -0.764041 0.552579 0.316476
v -0.783186 0.592246 0.025975
v -0.745532 0.539192 -0.308809
v -0.557735 0.527030 -0.557735
v -0.302637 0.528415 -0.730631
v -0.000000 0.488117 -0.730518
v 0.299768 0.754469 -0.687179
v 0.534239 0.755528 -0.534239
v 0.702150 0.760002 -0.290840
v 0.703412 0.703412 -0.000000
v 0.702761 0.760663 0.291093
v 0.497996 0.704273 0.497996
v 0.251887 0.658212 0.608109
v 0.000000 0.577649 0.577649
v -0.244440 0.638753 0.590131
v -0.462420 0.741592 0.433319
v -0.587110 0.635483 0.243189
v -0.671301 0.671301 0.000000
v -0.599465 0.648856 -0.248306
v -0.483953 0.684413 -0.483953
v -0.247381 0.646438 -0.597231
v -0.000000 0.690688 -0.690688
v 0.217993 0.852530 -0.526281
v 0.419129 0.887094 -0.419129
v 0.523673 0.848305 -0.216912
v 0.644071 0.963920 -0.000000
v 0.603451 0.977540 0.249958
v 0.423411 0.896158 0.423411
v 0.208907 0.816999 0.504347
v 0.000000 0.697715 0.466198
v -0.187840 0.734607 0.453485
v -0.349980 0.740739 0.349980
v -0.467931 0.758009 0.193823
v -0.534030 0.799233 0.000000
v -0.504417 0.817112 -0.208936
v -0.393119 0.832044 -0.393119
v -0.204289 0.798939 -0.493198
v -0.000000 0.826724 -0.552400
v 0.000000 0.906404 -0.375445
v 0.150387 0.948739 -0.363066
v 0.287278 0.980830 -0.287278
v 0.388144 1.014268 -0.160774
v 0.451972 1.006546 -0.000000
v 0.377547 0.986578 0.156385
v 0.278199 0.949831 0.278199
v 0.153830 0.970459 0.371379
v 0.000000 0.945173 0.391504
v -0.140097 0.883822 0.338224
v -0.249415 0.851556 0.249415
v -0.310641 0.811745 0.128672
v -0.378149 0.912932 0.000000
v -0.347138 0.907116 -0.143789
v -0.269902 0.921504 -0.269902
v -0.145495 0.917876 -0.351256
v 0.114272 1.056121 -0.171447
v 0.209965 1.097124 -0.041558
v 0.176767 1.088145 0.117555
v 0.040082 1.031283 0.197162
v -0.100899 0.935606 0.152105
v -0.185250 0.967371 0.036058
v -0.166838 1.007818 -0.111378
v -0.039197 1.046349 -0.200335
v -0.000000 1.024547 0.000000
vn 0.0589 -0.9081 0.4146
vn 0.1232 -0.9219 0.3674
vn 0.2105 -0.8753 0.4354
vn 0.1773 -0.9173 0.3565
vn 0.1842 -0.9448 0.2711
vn -0.0855 -0.9431 0.3213
vn -0.1154 -0.9066 0.4060
vn -0.0242 -0.8912 0.4529
vn -0.0533 -0.9078 0.4161
vn 0.2913 -0.9555 -0.0473
vn 0.4292 -0.8824 0.1930
vn 0.4567 -0.8440 0.2813
vn 0.2964 -0.9364 0.1879
vn 0.1353 -0.9773 0.1631
vn 0.0480 -0.9469 0.3180
vn 0.0738 -0.8735 0.4813
vn -0.0153 -0.8389 0.5441
vn -0.1774 -0.8833 0.4340
vn -0.0725 -0.8919 0.4464
vn -0.0150 -0.8803 0.4743
vn -0.1608 -0.9359 0.3136
vn -0.3153 -0.9262 0.2066
vn -0.3804 -0.9220 0.0726
vn -0.2118 -0.9708 -0.1123
vn 0.0771 -0.9795 -0.1861
vn 0.4031 -0.7221 -0.5623
vn 0.6713 -0.7111 -0.2091
vn 0.6099 -0.7923 0.0172
vn 0.4347 -0.9004 -0.0166
vn 0.2723 -0.9498 0.1541
vn 0.0428 -0.8965 0.4410
vn 0.0171 -0.8463 0.5324
vn 0.1166 -0.9145 0.3873
vn -0.0308 -0.9700 0.2412
vn -0.1180 -0.9170 0.3811
vn -0.1594 -0.8804 0.4467
vn -0.3873 -0.9092 0.1528
vn -0.5793 -0.8013 -0.1493
vn -0.6473 -0.6962 -0.3103
vn -0.3705 -0.7515 -0.5459
vn 0.0763 -0.7371 -0.6715
vn 0.4776 -0.3672 -0.7981
vn 0.7089 -0.4744 -0.5220
vn 0.6765 -0.6976 -0.2361
vn 0.6190 -0.7842 -0.0430
vn 0.5517 -0.8119 0.1908
vn 0.1590 -0.8850 0.4377
vn 0.0425 -0.9044 0.4245
vn 0.1890 -0.9232 0.3345
vn -0.1693 -0.9291 0.3289
vn -0.3417 -0.8379 0.4257
vn -0.3448 -0.8122 0.4705
vn -0.5351 -0.8446 0.0184
vn -0.5983 -0.7246 -0.3420
vn -0.6417 -0.5640 -0.5197
vn -0.4181 -0.4491 -0.7896
vn 0.0672 -0.3921 -0.9175
vn 0.4773 -0.2303 -0.8480
vn 0.5887 -0.4016 -0.7015
vn 0.6524 -0.6448 -0.3982
vn 0.6842 -0.7289 -0.0239
vn 0.6408 -0.7517 0.1559
vn 0.3086 -0.8745 0.3742
vn 0.0613 -0.8322 0.5511
vn 0.0976 -0.7270 0.6796
vn -0.2982 -0.7035 0.6451
vn -0.5026 -0.6863 0.5257
vn -0.5716 -0.6492 0.5018
vn -0.7520 -0.6592 0.0040
vn -0.6721 -0.5407 -0.5059
vn -0.6038 -0.2916 -0.7418
vn -0.4358 -0.1328 -0.8902
vn 0.0408 -0.1973 -0.9795
vn 0.4201 -0.4057 -0.8117
vn 0.4660 -0.4907 -0.7362
vn 0.6558 -0.6040 -0.4530
vn 0.8374 -0.5447 0.0455
vn 0.8708 -0.4470 0.2045
vn 0.6069 -0.5971 0.5245
vn 0.0879 -0.6383 0.7648
vn -0.0025 -0.5762 0.8173
vn -0.2802 -0.5983 0.7507
vn -0.5542 -0.6160 0.5598
vn -0.7512 -0.4942 0.4376
vn -0.9393 -0.3427 -0.0159
vn -0.7691 -0.1890 -0.6105
vn -0.5809 -0.1306 -0.8034
vn -0.4991 -0.2852 -0.8183
vn 0.0221 -0.4025 -0.9151
vn 0.3687 -0.3736 -0.8512
vn 0.5541 -0.3107 -0.7723
vn 0.8505 -0.1735 -0.4965
vn 0.9915 -0.0751 0.1063
vn 0.9663 -0.0403 0.2542
vn 0.7920 -0.2086 0.5738
vn 0.1633 -0.3145 0.9351
vn -0.0285 -0.3374 0.9409
vn -0.2667 -0.4069 0.8737
vn -0.6567 -0.4274 0.6214
vn -0.8780 -0.3138 0.3615
vn -0.9904 -0.0709 -0.1190
vn -0.7619 0.0661 -0.6443
vn -0.6805 -0.1567 -0.7158
vn -0.5043 -0.3205 -0.8018
vn 0.0110 -0.3053 -0.9522
vn 0.3682 0.1104 -0.9232
vn 0.6489 0.2025 -0.7334
vn 0.8401 0.2313 -0.4907
vn 0.9920 0.0957 0.0825
vn 0.9660 0.0214 0.2578
vn 0.8202 0.0903 0.5650
vn 0.1811 0.1563 0.9710
vn -0.0022 0.1456 0.9893
vn -0.2252 -0.0161 0.9742
vn -0.7191 -0.1488 0.6788
vn -0.9381 -0.1301 0.3209
vn -0.9722 0.0064 -0.2342
vn -0.7905 0.0585 -0.6097
vn -0.7778 -0.0639 -0.6252
vn -0.4560 -0.0278 -0.8895
vn 0.0066 0.0833 -0.9965
vn 0.3311 0.3396 -0.8804
vn 0.6443 0.2000 -0.7382
vn 0.8476 0.2316 -0.4774
vn 0.9531 0.3012 0.0286
vn 0.8724 0.4009 0.2797
vn 0.6527 0.5932 0.4713
vn 0.1281 0.6336 0.7630
vn 0.0767 0.4664 0.8812
vn -0.1377 0.3415 0.9297
vn -0.6840 0.2752 0.6756
vn -0.9214 0.2647 0.2846
vn -0.9344 0.2324 -0.2700
vn -0.8242 0.0890 -0.5593
vn -0.7842 0.0689 -0.6167
vn -0.3812 0.1910 -0.9045
vn 0.0463 0.3121 -0.9489
vn 0.2301 0.2119 -0.9498
vn 0.6566 0.1324 -0.7425
vn 0.8665 0.3900 -0.3115
vn 0.8080 0.5886 0.0265
vn 0.7357 0.5954 0.3228
vn 0.4799 0.6882 0.5441
vn 0.2316 0.6970 0.6786
vn 0.1824 0.5646 0.8050
vn -0.0769 0.6410 0.7637
vn -0.4794 0.7134 0.5110
vn -0.7186 0.6629 0.2102
vn -0.8323 0.5116 -0.2135
vn -0.8225 0.3046 -0.4803
vn -0.7227 0.2832 -0.6305
vn -0.3055 0.4067 -0.8610
vn 0.0752 0.3913 -0.9172
vn 0.1707 0.3016 -0.9380
vn 0.6560 0.3896 -0.6464
vn 0.8937 0.4172 -0.1652
vn 0.9164 0.3999 0.0138
vn 0.8701 0.3223 0.3728
vn 0.5439 0.3107 0.7795
vn 0.3154 0.4828 0.8170
vn 0.1738 0.6921 0.7006
vn -0.0899 0.7855 0.6123
vn -0.3823 0.8110 0.4429
vn -0.5821 0.7889 0.1972
vn -0.6632 0.7470 -0.0459
vn -0.7425 0.5566 -0.3728
vn -0.6020 0.5350 -0.5927
vn -0.2527 0.5498 -0.7962
vn -0.0210 0.3704 -0.9286
vn 0.1177 0.6323 -0.7657
vn 0.5462 0.6757 -0.4950
vn 0.8331 0.5021 -0.2318
vn 0.9552 0.2910 -0.0546
vn 0.8688 0.3123 0.3844
vn 0.4709 0.3483 0.8105
vn 0.0889 0.4925 0.8658
vn 0.0131 0.7452 0.6667
vn -0.0235 0.8269 0.5619
vn -0.3388 0.8755 0.3445
vn -0.5246 0.8227 0.2191
vn -0.6103 0.7918 0.0256
vn -0.6730 0.6875 -0.2726
vn -0.5141 0.6616 -0.5459
vn -0.2742 0.6013 -0.7505
vn -0.1728 0.5422 -0.8223
vn 0.0324 0.8403 -0.5412
vn 0.3487 0.8490 -0.3970
vn 0.5722 0.7604 -0.3072
vn 0.6580 0.7380 -0.1496
vn 0.5263 0.7815 0.3351
vn 0.2487 0.7113 0.6574
vn -0.0478 0.5913 0.8050
vn -0.1484 0.5684 0.8093
vn -0.1142 0.7502 0.6513
vn -0.3177 0.8933 0.3180
vn -0.4709 0.8368 0.2792
vn -0.6084 0.7795 0.1488
vn -0.6474 0.7353 -0.2006
vn -0.4498 0.7537 -0.4791
vn -0.2528 0.7296 -0.6355
vn -0.1814 0.7857 -0.5915
vn -0.1005 0.8381 -0.5362
vn -0.0084 0.8622 -0.5064
vn 0.2320 0.8755 -0.4238
vn 0.3787 0.8677 -0.3219
vn 0.3180 0.9432 -0.0961
vn 0.1765 0.9469 0.2688
vn 0.1224 0.8856 0.4480
vn -0.0019 0.7984 0.6021
vn -0.3011 0.7012 0.6462
vn -0.4181 0.7480 0.5155
vn -0.4581 0.8291 0.3205
vn -0.4094 0.8200 0.4000
vn -0.4236 0.8638 0.2726
vn -0.4594 0.8834 -0.0928
vn -0.3617 0.8743 -0.3235
vn -0.2005 0.8428 -0.4994
vn -0.0556 0.9543 -0.2935
vn 0.0551 0.9960 -0.0710
vn 0.0406 0.9713 0.2344
vn -0.2896 0.9264 0.2406
vn -0.4638 0.8542 0.2349
vn -0.3532 0.8869 0.2979
vn -0.3354 0.9414 -0.0362
vn -0.1717 0.9480 -0.2680
vn -0.3034 0.9452 0.1205
s 1
f 1//1 2//2 3//3
f 1//1 3//3 4//4
f 1//1 4//4 5//5
f 1//1 5//5 6//6
f 1//1 6//6 7//7
f 1//1 7//7 8//8
f 1//1 8//8 9//9
f 1//1 9//9 2//2
f 2//2 25//25 10//10
f 3//3 2//2 10//10 11//11
f 3//3 11//11 12//12
f 4//4 3//3 12//12 13//13
f 4//4 13//13 14//14
f 5//5 4//4 14//14 15//15
f 5//5 15//15 16//16
f 6//6 5//5 16//16 17//17
f 6//6 17//17 18//18
f 7//7 6//6 18//18 19//19
f 7//7 19//19 20//20
f 8//8 7//7 20//20 21//21
f 8//8 21//21 22//22
f 9//9 8//8 22//22 23//23
f 9//9 23//23 24//24
f 2//2 9//9 24//24 25//25
f 10//10 25//25 41//41 26//26
f 11//11 10//10 26//26 27//27
f 12//12 11//11 27//27 28//28
f 13//13 12//12 28//28 29//29
f 14//14 13//13 29//29 30//30
f 15//15 14//14 30//30 31//31
f 16//16 15//15 31//31 32//32
f 17//17 16//16 32//32 33//33
f 18//18 17//17 33//33 34//34
f 19//19 18//18 34//34 35//35
f 20//20 19//19 35//35 36//36
f 21//21 20//20 36//36 37//37
f 22//22 21//21 37//37 38//38
f 23//23 22//22 38//38 39//39
f 24//24 23//23 39//39 40//40
f 25//25 24//24 40//40 41//41
f 26//26 41//41 57//57 42//42
f 27//27 26//26 42//42 43//43
f 28//28 27//27 43//43 44//44
f 29//29 28//28 44//44 45//45
f 30//30 29//29 45//45 46//46
f 31//31 30//30 46//46 47//47
f 32//32 31//31 47//47 48//48
f 33//33 32//32 48//48 49//49
f 34//34 33//33 49//49 50//50
f 35//35 34//34 50//50 51//51
f 36//36 35//35 51//51 52//52
f 37//37 36//36 52//52 53//53
f 38//38 37//37 53//53 54//54
f 39//39 38//38 54//54 55//55
f 40//40 39//39 55//55 56//56
f 41//41 40//40 56//56 57//57
f 42//42 57//57 73//73 58//58
f 43//43 42//42 58//58 59//59
f 44//44 43//43 59//59 60//60
f 45//45 44//44 60//60 61//61
f 46//46 45//45 61//61 62//62
f 47//47 46//46 62//62 63//63
f 48//48 47//47 63//63 64//64
f 49//49 48//48 64//64 65//65
f 50//50 49//49 65//65 66//66
f 51//51 50//50 66//66 67//67
f 52//52 51//51 67//67 68//68
f 53//53 52//52 68//68 69//69
f 54//54 53//53 69//69 70//70
f 55//55 54//54 70//70 71//71
f 56//56 55//55 71//71 72//72
f 57//57 56//56 72//72 73//73
f 58//58 73//73 89//89 74//74
f 59//59 58//58 74//74 75//75
f 60//60 59//59 75//75 76//76
f 61//61 60//60 76//76 77//77
f 62//62 61//61 77//77 78//78
f 63//63 62//62 78//78 79//79
f 64//64 63//63 79//79 80//80
f 65//65 64//64 80//80 81//81
f 66//66 65//65 81//81 82//82
f 67//67 66//66 82//82 83//83
f 68//68 67//67 83//83 84//84
f 69//69 68//68 84//84 85//85
f 70//70 69//69 85//85 86//86
f 71//71 70//70 86//86 87//87
f 72//72 71//71 87//87 88//88
f 73//73 72//72 88//88 89//89
f 74//74 89//89 105//105 90//90
f 75//75 74//74 90//90 91//91
f 76//76 75//75 91//91 92//92
f 77//77 76//76 92//92 93//93
f 78//78 77//77 93//93 94//94
f 79//79 78//78 94//94 95//95
f 80//80 79//79 95//95 96//96
f 81//81 80//80 96//96 97//97
f 82//82 81//81 97//97 98//98
f 83//83 82//82 98//98 99//99
f 84//84 83//83 99//99 100//100
f 85//85 84//84 100//100 101//101
f 86//86 85//85 101//101 102//102
f 87//87 86//86 102//102 103//103
f 88//88 87//87 103//103 104//104
f 89//89 88//88 104//104 105//105
f 90//90 105//105 121//121 106//106
f 91//91 90//90 106//106 107//107
f 92//92 91//91 107//107 108//108
f 93//93 92//92 108//108 109//109
f 94//94 93//93 109//109 110//110
f 95//95 94//94 110//110 111//111
f 96//96 95//95 111//111 112//112
f 97//97 96//96 112//112 113//113
f 98//98 97//97 113//113 114//114
f 99//99 98//98 114//114 115//115
f 100//100 99//99 115//115 116//116
f 101//101 100//100 116//116 117//117
f 102//102 101//101 117//117 118//118
f 103//103 102//102 118//118 119//119
f 104//104 103//103 119//119 120//120
f 105//105 104//104 120//120 121//121
f 106//106 121//121 137//137 122//122
f 107//107 106//106 122//122 123//123
f 108//108 107//107 123//123 124//124
f 109//109 108//108 124//124 125//125
f 110//110 109//109 125//125 126//126
f 111//111 110//110 126//126 127//127
f 112//112 111//111 127//127 128//128
f 113//113 112//112 128//128 129//129
f 114//114 113//113 129//129 130//130
f 115//115 114//114 130//130 131//131
f 116//116 115//115 131//131 132//132
f 117//117 116//116 132//132 133//133
f 118//118 117//117 133//133 134//134
f 119//119 118//118 134//134 135//135
f 120//120 119//119 135//135 136//136
f 121//121 120//120 136//136 137//137
f 122//122 137//137 153//153 138//138
f 123//123 122//122 138//138 139//139
f 124//124 123//123 139//139 140//140
f 125//125 124//124 140//140 141//141
f 126//126 125//125 141//141 142//142
f 127//127 126//126 142//142 143//143
f 128//128 127//127 143//143 144//144
f 129//129 128//128 144//144 145//145
f 130//130 129//129 145//145 146//146
f 131//131 130//130 146//146 147//147
f 132//132 131//131 147//147 148//148
f 133//133 132//132 148//148 149//149
f 134//134 133//133 149//149 150//150
f 135//135 134//134 150//150 151//151
f 136//136 135//135 151//151 152//152
f 137//137 136//136 152//152 153//153
f 138//138 153//153 169//169 154//154
f 139//139 138//138 154//154 155//155
f 140//140 139//139 155//155 156//156
f 141//141 140//140 156//156 157//157
f 142//142 141//141 157//157 158//158
f 143//143 142//142 158//158 159//159
f 144//144 143//143 159//159 160//160
f 145//145 144//144 160//160 161//161
f 146//146 145//145 161//161 162//162
f 147//147 146//146 162//162 163//163
f 148//148 147//147 163//163 164//164
f 149//149 148//148 164//164 165//165
f 150//150 149//149 165//165 166//166
f 151//151 150//150 166//166 167//167
f 152//152 151//151 167//167 168//168
f 153//153 152//152 168//168 169//169
f 154//154 169//169 185//185 170//170
f 155//155 154//154 170//170 171//171
f 156//156 155//155 171//171 172//172
f 157//157 156//156 172//172 173//173
f 158//158 157//157 173//173 174//174
f 159//159 158//158 174//174 175//175
f 160//160 159//159 175//175 176//176
f 161//161 160//160 176//176 177//177
f 162//162 161//161 177//177 178//178
f 163//163 162//162 178//178 179//179
f 164//164 163//163 179//179 180//180
f 165//165 164//164 180//180 181//181
f 166//166 165//165 181//181 182//182
f 167//167 166//166 182//182 183//183
f 168//168 167//167 183//183 184//184
f 169//169 168//168 184//184 185//185
f 170//170 185//185 201//201 186//186
f 171//171 170//170 186//186 187//187
f 172//172 171//171 187//187 188//188
f 173//173 172//172 188//188 189//189
f 174//174 173//173 189//189 190//190
f 175//175 174//174 190//190 191//191
f 176//176 175//175 191//191 192//192
f 177//177 176//176 192//192 193//193
f 178//178 177//177 193//193 194//194
f 179//179 178//178 194//194 195//195
f 180//180 179//179 195//195 196//196
f 181//181 180//180 196//196 197//197
f 182//182 181//181 197//197 198//198
f 183//183 182//182 198//198 199//199
f 184//184 183//183 199//199 200//200
f 185//185 184//184 200//200 201//201
f 186//186 201//201 202//202 203//203
f 187//187 186//186 203//203 204//204
f 188//188 187//187 204//204 205//205
f 189//189 188//188 205//205 206//206
f 190//190 189//189 206//206 207//207
f 191//191 190//190 207//207 208//208
f 192//192 191//191 208//208 209//209
f 193//193 192//192 209//209 210//210
f 194//194 193//193 210//210 211//211
f 195//195 194//194 211//211 212//212
f 196//196 195//195 212//212 213//213
f 197//197 196//196 213//213 214//214
f 198//198 197//197 214//214 215//215
f 199//199 198//198 215//215 216//216
f 200//200 199//199 216//216 217//217
f 201//201 200//200 217//217 202//202
f 203//203 202//202 225//225 218//218
f 204//204 203//203 218//218
f 205//205 204//204 218//218 219//219
f 206//206 205//205 219//219
f 207//207 206//206 219//219 220//220
f 208//208 207//207 220//220
f 209//209 208//208 220//220 221//221
f 210//210 209//209 221//221
f 211//211 210//210 221//221 222//222
f 212//212 211//211 222//222
f 213//213 212//212 222//222 223//223
f 214//214 213//213 223//223
f 215//215 214//214 223//223 224//224
f 216//216 215//215 224//224
f 217//217 216//216 224//224 225//225
f 202//202 217//217 225//225
f 218//218 225//225 226//226
f 219//219 218//218 226//226
f 220//220 219//219 226//226
f 221//221 220//220 226//226
f 222//222 221//221 226//226
f 223//223 222//222 226//226
f 224//224 223//223 226//226
f 225//225 224//224 226//226
