# Blender 4.4.3
# www.blender.org
mtllib Cleat.mtl
o Pier_Cleat
v -0.000268 0.227021 -0.101281
v 0.075157 0.227021 -0.072269
v 0.106400 0.226956 -0.002230
v 0.082641 0.233187 0.082263
v -0.000490 0.233187 0.116697
v -0.083620 0.233187 0.082263
v -0.106936 0.226956 -0.002230
v -0.075694 0.227021 -0.072269
v -0.000268 0.185942 -0.117520
v 0.082218 0.189895 -0.083354
v 0.117297 0.147448 -0.000868
v 0.082863 0.147448 0.082263
v -0.000268 0.147448 0.116697
v -0.083399 0.147448 0.082263
v -0.116920 0.185877 -0.000868
v -0.082754 0.185942 -0.083354
v 0.116384 0.185877 -0.000868
v 0.082218 0.185877 0.101254
v -0.000268 0.185877 0.135421
v -0.082754 0.185877 0.101254
v 0.079150 0.032864 -0.079150
v 0.111935 0.032864 0.000000
v 0.079150 0.032864 0.079150
v 0.000000 0.032864 0.111935
v -0.111935 0.032864 0.000000
v -0.079150 0.032864 -0.079150
v 0.000000 0.032864 -0.111935
v -0.079150 0.032864 0.079150
v 0.000000 -0.009218 -0.205226
v 0.141293 -0.009218 -0.141604
v 0.141293 0.022220 -0.141604
v 0.198124 -0.009218 0.000000
v 0.198124 0.022220 0.000000
v -0.140095 0.022220 0.140095
v -0.140095 -0.009218 0.140095
v -0.195951 -0.009218 -0.000485
v -0.195951 0.022220 -0.000485
v -0.147586 -0.009218 -0.150539
v -0.147586 0.022220 -0.150539
v 0.000000 0.031951 -0.199614
v 0.152278 -0.009218 0.149716
v 0.152278 0.032864 0.149716
v 0.000000 -0.009218 0.205226
v 0.000000 0.032864 0.205226
vn -0.0896 0.9950 -0.0444
vn 0.0025 0.9988 -0.0485
vn 0.0007 0.9988 -0.0484
vn -0.0886 0.9951 -0.0445
vn -0.0065 0.9994 -0.0331
vn -0.0004 1.0000 0.0011
vn -0.0000 1.0000 0.0008
vn -0.0019 0.1511 -0.9885
vn -0.0049 0.3518 -0.9361
vn 0.6773 0.3105 -0.6670
vn 0.6888 0.1437 -0.7105
vn -0.0000 0.9979 -0.0640
vn -0.0344 0.9959 -0.0831
vn 0.9747 0.2178 -0.0503
vn 0.9953 0.0924 -0.0290
vn 0.0343 0.9960 -0.0829
vn 0.0065 0.9994 -0.0332
vn 0.7602 0.2689 0.5914
vn 0.6786 0.0001 0.7345
vn -0.0011 0.3680 0.9298
vn 0.0005 -0.0350 0.9994
vn -0.7629 0.2642 0.5901
vn -0.6822 -0.0180 0.7309
vn 0.0004 1.0000 0.0011
vn -0.9763 0.2095 -0.0547
vn -0.9966 0.0771 -0.0290
vn -0.6799 0.2963 -0.6708
vn -0.6930 0.1287 -0.7094
vn -0.7071 -0.0360 -0.7062
vn 0.0008 -0.0362 -0.9993
vn -0.9993 -0.0364 -0.0049
vn -0.7098 -0.0404 0.7033
vn -0.7453 -0.1562 0.6482
vn 0.0006 -0.0415 0.9991
vn -0.0006 -0.0415 0.9991
vn 0.7058 -0.0421 0.7071
vn 0.7071 -0.0421 0.7059
vn 0.9991 -0.0413 -0.0049
vn 0.9992 -0.0371 -0.0148
vn 0.7029 -0.0369 -0.7103
vn -0.0000 -0.4380 0.8990
vn 0.7639 -0.2279 0.6037
vn -0.1218 0.9925 0.0042
vn -0.1217 0.9926 0.0027
vn -0.0960 0.9943 0.0463
vn -0.0954 0.9944 0.0462
vn 0.7164 0.0383 -0.6966
vn 0.7107 0.0390 -0.7024
vn 0.9994 -0.0000 -0.0348
vn 0.9991 -0.0000 -0.0422
vn 0.7178 -0.0000 0.6963
vn 0.7254 -0.0000 0.6883
vn 0.0330 0.0770 -0.9965
vn 0.0351 0.0770 -0.9964
vn -0.7270 -0.0000 0.6867
vn -0.7211 -0.0000 0.6928
vn -0.9994 -0.0000 0.0332
vn -0.7102 0.0413 -0.7028
vn -0.7170 0.0406 -0.6959
vn -0.0335 -0.0000 0.9994
vn -0.0428 -0.0000 0.9991
vn 0.0931 0.9944 -0.0497
vn 0.0930 0.9944 -0.0497
vn 0.0986 0.9945 -0.0349
vn 0.0375 0.9992 -0.0101
vn 0.0376 0.9992 -0.0101
vn 0.0979 0.9946 -0.0344
vn -0.0337 0.9992 0.0211
vn -0.0324 0.9993 0.0204
vt 0.261473 0.747186
vt 0.233142 0.745939
vt 0.223201 0.718636
vt 0.274839 0.717078
vt 0.258564 0.753895
vt 0.273810 0.769183
vt 0.273810 0.791934
vt 0.328628 0.890136
vt 0.313027 0.887412
vt 0.313027 0.858425
vt 0.328628 0.858053
vt 0.216469 0.769946
vt 0.233902 0.751567
vt 0.313027 0.840538
vt 0.328628 0.839137
vt 0.217093 0.795270
vt 0.237003 0.809951
vt 0.313027 0.809721
vt 0.328628 0.800872
vt 0.313027 0.784018
vt 0.328628 0.785204
vt 0.313027 0.751848
vt 0.328628 0.753283
vt 0.258564 0.808821
vt 0.328628 0.974540
vt 0.313027 0.968583
vt 0.313027 0.943263
vt 0.328628 0.944757
vt 0.313027 0.912069
vt 0.328628 0.912716
vt 0.383636 0.912716
vt 0.383636 0.891049
vt 0.383636 0.943461
vt 0.383636 0.965730
vt 0.344379 0.968027
vt 0.383636 0.777014
vt 0.341300 0.781312
vt 0.341300 0.749142
vt 0.383636 0.746384
vt 0.383636 0.800107
vt 0.341300 0.805358
vt 0.383636 0.830496
vt 0.341300 0.837276
vt 0.383636 0.860307
vt 0.280584 0.768090
vt 0.306880 0.758347
vt 0.279407 0.796386
vt 0.305479 0.808476
vt 0.198275 0.848114
vt 0.210153 0.848114
vt 0.210153 0.891362
vt 0.198275 0.891362
vt 0.210153 0.950241
vt 0.198275 0.950241
vt 0.212237 0.765110
vt 0.185590 0.752706
vt 0.211046 0.793436
vt 0.230180 0.814361
vt 0.215451 0.844639
vt 0.184027 0.803259
vt 0.258557 0.815606
vt 0.269127 0.844639
s 1
f 26/1/1 27/2/2 40/3/3 39/4/4
f 3/5/5 2/6/6 1/7/7
f 9/8/8 1/9/9 2/10/10 10/11/11
f 5/12/12 4/13/13 3/5/5
f 10/11/11 2/10/10 3/14/14 17/15/15
f 6/16/16 5/12/12 7/17/17
f 17/15/15 3/14/14 4/18/18 18/19/19
f 7/17/17 5/12/12 3/5/5
f 18/19/19 4/18/18 5/20/20 19/21/21
f 3/5/5 1/7/7 7/17/17
f 19/21/21 5/20/20 6/22/22 20/23/23
f 1/7/7 8/24/24 7/17/17
f 20/25/23 6/26/22 7/27/25 15/28/26
f 15/28/26 7/27/25 8/29/27 16/30/28
f 16/30/28 8/29/27 1/9/9 9/8/8
f 26/31/29 16/30/28 9/8/8 27/32/30
f 25/33/31 15/28/26 16/30/28 26/31/29
f 28/34/32 14/35/33 15/28/26 25/33/31
f 24/36/34 13/37/35 14/38/33 28/39/32
f 23/40/36 12/41/37 13/37/35 24/36/34
f 22/42/38 11/43/39 12/41/37 23/40/36
f 21/44/40 10/11/11 11/43/39 22/42/38
f 27/32/30 9/8/8 10/11/11 21/44/40
f 14/35/33 20/25/23 15/28/26
f 13/37/41 19/21/21 20/23/23 14/38/33
f 12/41/42 18/19/19 19/21/21 13/37/41
f 11/43/39 17/15/15 18/19/19 12/41/42
f 10/11/11 17/15/15 11/43/39
f 25/45/43 26/1/1 39/4/4 37/46/44
f 28/47/45 25/45/43 37/46/44 34/48/46
f 30/49/47 31/50/48 33/51/49 32/52/50
f 32/52/50 33/51/49 42/53/51 41/54/52
f 29/52/53 40/51/54 31/53/48 30/54/47
f 35/49/55 34/50/56 37/51/57 36/52/57
f 36/52/57 37/51/57 39/53/58 38/54/59
f 38/49/59 39/50/58 40/51/54 29/52/53
f 41/49/52 42/50/51 44/51/60 43/52/61
f 43/52/61 44/51/60 34/53/56 35/54/55
f 27/2/2 21/55/62 31/56/63 40/3/3
f 22/57/64 23/58/65 42/59/66 33/60/67
f 21/55/62 22/57/64 33/60/67 31/56/63
f 23/58/65 24/61/68 44/62/69 42/59/66
f 24/61/68 28/47/45 34/48/46 44/62/69
