# Blender 4.4.3
# www.blender.org
mtllib Fence_Post.mtl
o Fence_Post
v -0.000000 -1.596812 0.000000
v -0.000000 0.403188 0.000000
v -0.000000 -1.596812 0.122928
v -0.000000 0.403188 0.122928
v -0.106459 -1.596812 0.061464
v -0.106459 0.403188 0.061464
v -0.106459 -1.596812 -0.061464
v -0.106459 0.403188 -0.061464
v -0.000000 -1.596812 -0.122928
v -0.000000 0.403188 -0.122928
v 0.106459 -1.596812 -0.061464
v 0.106459 0.403188 -0.061464
v 0.106459 -1.596812 0.061464
v 0.106459 0.403188 0.061464
vn -0.0000 -1.0000 -0.0000
vn -0.0000 1.0000 -0.0000
vn -0.0000 -0.0000 1.0000
vn -0.8660 -0.0000 0.5000
vn -0.8660 -0.0000 -0.5000
vn -0.0000 -0.0000 -1.0000
vn 0.8660 -0.0000 -0.5000
vn 0.8660 -0.0000 0.5000
vt 0.750000 0.250000
vt 0.750000 0.490000
vt 0.957846 0.370000
vt 0.250000 0.250000
vt 0.457846 0.370000
vt 0.250000 0.490000
vt 1.000000 0.500000
vt 1.000000 1.000000
vt 0.833333 1.000000
vt 0.833333 0.500000
vt 0.957846 0.130000
vt 0.457846 0.130000
vt 0.666667 1.000000
vt 0.666667 0.500000
vt 0.750000 0.010000
vt 0.250000 0.010000
vt 0.500000 1.000000
vt 0.500000 0.500000
vt 0.542154 0.130000
vt 0.042154 0.130000
vt 0.333333 1.000000
vt 0.333333 0.500000
vt 0.542154 0.370000
vt 0.042154 0.370000
vt 0.166667 1.000000
vt 0.166667 0.500000
vt -0.000000 1.000000
vt -0.000000 0.500000
s 1
f 1/1/1 3/2/1 5/3/1
f 2/4/2 6/5/2 4/6/2
f 3/7/3 4/8/3 6/9/4 5/10/4
f 1/1/1 5/3/1 7/11/1
f 2/4/2 8/12/2 6/5/2
f 5/10/4 6/9/4 8/13/5 7/14/5
f 1/1/1 7/11/1 9/15/1
f 2/4/2 10/16/2 8/12/2
f 7/14/5 8/13/5 10/17/6 9/18/6
f 1/1/1 9/15/1 11/19/1
f 2/4/2 12/20/2 10/16/2
f 9/18/6 10/17/6 12/21/7 11/22/7
f 1/1/1 11/19/1 13/23/1
f 2/4/2 14/24/2 12/20/2
f 11/22/7 12/21/7 14/25/8 13/26/8
f 1/1/1 13/23/1 3/2/1
f 2/4/2 4/6/2 14/24/2
f 13/26/8 14/25/8 4/27/3 3/28/3
