# Blender 4.4.3
# www.blender.org
mtllib Fence_Board.mtl
o Fence_Board
v -1.721476 0.150760 0.060409
v -1.721476 -0.150760 0.060409
v -1.721476 0.150760 -0.060409
v -1.721476 -0.150760 -0.060409
v 1.721476 0.150760 0.060409
v 1.721476 -0.150760 0.060409
v 1.721476 0.150760 -0.060409
v 1.721476 -0.150760 -0.060409
v 0.000000 -0.175864 -0.100374
v 0.000000 0.125656 0.020445
v 0.000000 -0.175864 0.020445
vn -1.0000 -0.0000 -0.0000
vn -0.0000 0.0635 -0.9980
vn 1.0000 -0.0000 -0.0000
vn 0.0232 -0.0000 0.9997
vn -0.0000 0.9923 0.1235
vn -0.0146 -0.9999 -0.0000
vn 0.0146 -0.9999 -0.0000
vn -0.0232 -0.0000 0.9997
vt 0.375000 0.000000
vt 0.625000 0.000000
vt 0.625000 0.250000
vt 0.375000 0.250000
vt 0.625000 0.375000
vt 0.625000 0.500000
vt 0.375000 0.500000
vt 0.625000 0.750000
vt 0.375000 0.750000
vt 0.375000 0.875000
vt 0.625000 0.875000
vt 0.625000 1.000000
vt 0.375000 1.000000
vt 0.125000 0.500000
vt 0.250000 0.750000
vt 0.125000 0.750000
vt 0.750000 0.500000
vt 0.875000 0.500000
vt 0.875000 0.750000
vt 0.750000 0.750000
s 0
f 1/1/1 3/4/1 4/3/1 2/2/1
f 3/4/2 7/7/2 8/6/2 9/5/2 4/3/2
f 7/7/3 5/9/3 6/8/3 8/6/3
f 10/10/4 1/13/4 2/12/4 11/11/4
f 3/14/5 1/16/5 10/15/5 5/9/5 7/7/5
f 9/17/6 11/20/6 2/19/6 4/18/6
f 8/6/7 6/8/7 11/20/7 9/17/7
f 5/9/8 10/10/8 11/11/8 6/8/8
