# Blender 4.4.3
# www.blender.org
mtllib House_Eur.mtl
o House_Eur
v -6.573297 -10.828359 -2.492037
v -6.573297 -8.831690 -2.482455
v -6.573297 -10.837605 -3.572713
v -6.573297 -8.839898 -3.559755
v -5.495796 -10.792847 -2.492040
v -5.495796 -8.799399 -2.477064
v -5.495796 -10.805758 -3.572075
v -5.495796 -8.811146 -3.544574
v -9.769196 -1.060020 4.261701
v -9.783552 0.939980 4.261701
v -9.769196 -1.060020 -6.731185
v -9.783552 0.939980 -6.731185
v 9.363276 -1.060020 4.261701
v 9.352316 0.939980 4.261701
v 9.363276 -1.060020 -6.731185
v 9.352316 0.939980 -6.731185
v -9.687065 -5.880322 -6.744054
v -9.687065 -5.875273 4.261701
v 9.425972 -5.875273 -6.731185
v 9.425972 -5.875273 4.261701
v -9.670843 -10.663830 -1.282934
v 9.438356 -10.644924 -1.234742
v -10.020267 -10.662349 -1.279159
v -9.783552 0.939980 -1.234742
v 9.787781 -10.644924 -1.234742
v -9.769196 -1.060020 -1.234742
v -10.020267 -10.904452 -1.279191
v -0.116244 0.939980 4.154553
v 9.787781 -10.887015 -1.234742
v -0.116244 -1.060020 4.004495
v -0.116244 0.939980 -6.659615
v -0.116244 -1.060020 -6.561188
v -10.046066 -5.174258 5.069536
v 9.768087 -5.174258 5.069536
v 9.770540 -5.357104 5.228203
v -10.042852 -5.357104 5.228203
v -10.046066 -5.175785 -7.542910
v -10.042852 -5.358748 -7.701878
v 9.770540 -5.357104 -7.697687
v 9.768087 -5.174258 -7.539020
v 9.363276 -1.060020 -1.234742
v 9.352316 0.939980 -1.234742
v -9.687065 -5.882067 -1.252061
v 9.425972 -5.875273 -1.234742
v 6.611580 -4.374746 4.055872
v 6.585334 -2.087791 4.086503
v 7.906378 -2.087791 4.260718
v 7.936741 -4.374746 4.251907
v 7.936769 -4.374746 4.109869
v 7.906419 -2.087791 4.118256
v 6.585283 -2.087791 4.228000
v 6.611540 -4.374746 4.196922
v 2.489158 -4.373952 3.763203
v 2.483897 -2.087791 3.859139
v 3.803816 -2.087791 4.073810
v 3.816678 -4.374746 3.997169
v 3.816719 -4.374746 3.857604
v 3.803882 -2.087791 3.933816
v 2.483852 -2.087791 3.998712
v 2.489150 -4.374343 3.902320
v -3.728401 -4.374746 3.832959
v -3.742832 -2.087791 3.914241
v -2.397418 -2.087791 3.982939
v -2.393000 -4.373936 3.882124
v -2.393000 -4.373407 3.743104
v -2.397370 -2.087791 3.843443
v -3.742916 -2.087791 4.054114
v -3.728446 -4.374746 3.972403
v -7.904140 -4.374746 4.100553
v -7.942825 -2.087791 4.114456
v -6.595664 -2.087791 4.214197
v -6.562965 -4.374746 4.177673
v -6.562908 -4.374746 4.036842
v -6.595592 -2.087791 4.072917
v -7.942881 -2.087791 4.256671
v -7.904180 -4.374746 4.242333
v -9.573555 -4.268108 0.177142
v -9.613319 -1.980315 0.179277
v -9.736015 -1.980315 1.511014
v -9.701462 -4.267295 1.510951
v -9.564924 -4.267313 1.510904
v -9.599463 -1.980315 1.511014
v -9.749882 -1.980315 0.179277
v -9.710096 -4.268015 0.177379
v -9.565048 -4.270370 -3.972679
v -9.599663 -1.980315 -3.964779
v -9.750000 -1.980315 -2.633042
v -9.710171 -4.270058 -2.640149
v -9.573629 -4.270242 -2.640616
v -9.613440 -1.980315 -2.633042
v -9.736216 -1.980315 -3.964779
v -9.701586 -4.270183 -3.972202
v 9.273878 -4.267271 -2.633043
v 9.243486 -1.980315 -2.633043
v 9.388451 -1.980315 -3.964779
v 9.414886 -4.267271 -3.964779
v 9.280428 -4.267271 -3.964779
v 9.254004 -1.980315 -3.964779
v 9.377930 -1.980315 -2.633043
v 9.408335 -4.267271 -2.633043
v 9.280523 -4.267271 1.511014
v 9.254158 -1.980315 1.511014
v 9.378021 -1.980315 0.179277
v 9.408392 -4.267271 0.179277
v 9.273935 -4.267271 0.179277
v 9.243578 -1.980315 0.179277
v 9.388605 -1.980315 1.511014
v 9.414984 -4.267271 1.511014
v -6.562922 -4.378152 -6.543859
v -6.595603 -2.087791 -6.559176
v -7.942880 -2.087791 -6.727548
v -7.904179 -4.377492 -6.724858
v -7.904142 -4.377684 -6.585218
v -7.942827 -2.087791 -6.587244
v -6.595665 -2.087791 -6.699093
v -6.562969 -4.377947 -6.683047
v -2.392999 -4.375173 -6.347934
v -2.397404 -2.087791 -6.408270
v -3.742940 -2.087791 -6.593604
v -3.728467 -4.377528 -6.547390
v -3.728434 -4.377708 -6.409013
v -3.742878 -2.087791 -6.454438
v -2.397439 -2.087791 -6.547150
v -2.392999 -4.375560 -6.486034
v 3.816691 -4.374746 -6.417478
v 3.803848 -2.087791 -6.467261
v 2.483834 -2.087791 -6.557420
v 2.489146 -4.374343 -6.494908
v 2.489152 -4.373960 -6.356376
v 2.483867 -2.087791 -6.418477
v 3.803798 -2.087791 -6.606507
v 3.816662 -4.374746 -6.556415
v 7.936769 -4.374746 -6.584072
v 7.906419 -2.087791 -6.589972
v 6.585284 -2.087791 -6.708281
v 6.611539 -4.374746 -6.687632
v 6.611573 -4.374746 -6.547818
v 6.585329 -2.087791 -6.568269
v 7.906379 -2.087791 -6.730374
v 7.936742 -4.374746 -6.724306
v 6.627034 -5.984598 4.197645
v 3.155144 -5.976022 3.948373
v -3.058868 -5.973856 3.925187
v -6.544000 -5.984598 4.178468
v -6.544001 -5.993586 -6.697885
v -3.058867 -5.981017 -6.527663
v 3.155145 -5.976022 -6.524374
v 6.627035 -5.984598 -6.687706
v -0.116244 -2.087791 -6.510941
v -0.116243 -4.371645 -6.434758
v -0.116245 -2.087791 3.927134
v -0.116245 -5.961767 3.808246
v -0.116245 -4.371636 3.808476
v -0.116244 -5.963200 -6.438241
v 4.835768 -10.548337 -1.234742
v -0.116244 -10.424009 -1.246333
v -5.068256 -10.574358 -1.301072
v -5.068256 -10.816493 -1.301185
v -0.116244 -10.666148 -1.247090
v 4.835768 -10.790428 -1.234742
v -5.074482 -5.174258 4.869030
v -0.116244 -5.171234 4.594684
v 4.831016 -5.174258 4.869030
v 4.832085 -5.357104 5.027192
v -0.116244 -5.354113 4.753351
v -5.073080 -5.357104 5.027192
v -5.074428 -5.178627 -7.419648
v -0.116244 -5.171361 -7.229169
v 4.831057 -5.174258 -7.408514
v -5.073021 -5.361679 -7.578845
v -0.116244 -5.354278 -7.387933
v 4.832130 -5.357104 -7.567181
vn -1.0000 -0.0000 -0.0000
vn 0.0071 0.0101 -0.9999
vn 1.0000 -0.0000 -0.0000
vn -0.0023 -0.0062 1.0000
vn 0.0312 -0.9995 0.0102
vn -1.0000 -0.0072 -0.0000
vn -0.0127 -0.0246 -0.9996
vn 1.0000 0.0055 -0.0000
vn 0.0188 -0.0374 0.9991
vn -1.0000 -0.0034 -0.0000
vn 1.0000 0.0026 -0.0000
vn 0.0131 -0.7558 -0.6547
vn -1.0000 -0.0068 0.0021
vn 0.0125 -0.0246 -0.9996
vn -0.0207 -0.7575 0.6526
vn 1.0000 0.0052 -0.0016
vn -1.0000 -0.0068 -0.0021
vn 1.0000 0.0052 0.0016
vn 0.0160 0.7547 0.6559
vn 0.0305 0.6547 0.7553
vn 0.0191 0.6561 -0.7545
vn -0.0192 -0.0375 0.9991
vn -0.0214 0.7543 -0.6561
vn -0.0000 -1.0000 -0.0000
vn -0.0000 1.0000 -0.0000
vn -0.0324 -0.0089 0.9994
vn 0.9999 0.0115 0.0003
vn -0.9999 -0.0133 -0.0002
vn 0.0004 1.0000 0.0014
vn -0.0637 -0.0378 0.9973
vn 1.0000 0.0023 0.0002
vn -1.0000 -0.0056 -0.0004
vn -0.0007 1.0000 0.0019
vn 0.0598 -0.0394 0.9974
vn 1.0000 0.0063 0.0005
vn -1.0000 -0.0019 -0.0002
vn 0.0391 -0.0103 0.9992
vn 0.9999 0.0169 0.0003
vn -0.9999 -0.0143 -0.0005
vn 0.0004 1.0000 -0.0006
vn -0.9998 -0.0162 0.0084
vn 0.0009 -0.0009 1.0000
vn -0.0002 -0.0000 -1.0000
vn 0.0014 1.0000 -0.0001
vn -0.9998 -0.0162 -0.0084
vn 0.0017 -0.0033 1.0000
vn -0.0017 0.0032 -1.0000
vn 0.9999 0.0124 0.0064
vn -0.0000 -0.0000 -1.0000
vn -0.0000 -0.0000 1.0000
vn 0.9999 0.0124 -0.0064
vn 0.0003 1.0000 0.0014
vn 0.0258 -0.0034 -0.9997
vn -0.9999 -0.0143 0.0004
vn 0.9999 0.0169 -0.0003
vn -0.0017 1.0000 -0.0007
vn 0.0400 -0.0229 -0.9989
vn -1.0000 -0.0019 0.0001
vn 1.0000 0.0063 -0.0003
vn 0.0004 1.0000 -0.0014
vn -0.0415 -0.0246 -0.9988
vn -1.0000 -0.0056 0.0003
vn 1.0000 0.0023 -0.0001
vn -0.0219 -0.0060 -0.9997
vn -0.9999 -0.0133 0.0002
vn 0.9999 0.0115 -0.0003
vn 0.0424 -0.0131 -0.9990
vn 0.0192 -0.0300 -0.9994
vn -0.0417 -0.0158 -0.9990
vn 0.9997 0.0228 0.0015
vn 0.9997 0.0229 -0.0015
vn -0.0268 0.0397 0.9989
vn -0.0552 -0.1440 0.9880
vn -0.0633 -0.0240 0.9977
vn 0.0298 -0.0570 0.9979
vn 0.0479 0.1020 0.9936
vn 0.0641 -0.0251 0.9976
vn -0.0318 -0.0470 0.9984
vn -0.9995 -0.0300 0.0020
vn -0.9996 -0.0298 -0.0020
vn 0.0220 -0.0047 -0.9997
vn -0.0222 -0.0014 -0.9998
vn 0.9999 0.0133 -0.0000
vn 1.0000 0.0085 -0.0010
vn 1.0000 0.0085 0.0010
vn 0.9999 0.0125 0.0042
vn 0.9999 0.0125 -0.0041
vn 0.9999 0.0110 -0.0000
vn 0.9999 0.0160 -0.0000
vn -0.9999 -0.0111 -0.0013
vn -0.9999 -0.0111 0.0013
vn -0.9998 -0.0174 -0.0000
vn -0.9999 -0.0143 -0.0000
vn -0.9998 -0.0209 -0.0000
vn -0.9999 -0.0164 -0.0055
vn -0.9999 -0.0164 0.0054
vn 0.0061 0.0015 -1.0000
vn -0.0028 -0.0009 -1.0000
vn 0.0070 -0.0019 1.0000
vn -0.0039 -0.0013 1.0000
vn -0.0470 -0.0005 -0.9989
vn -0.0249 0.0051 -0.9997
vn -0.0715 -0.0006 0.9974
vn 0.0483 0.0088 -0.9988
vn 0.0724 0.0011 0.9974
vn 0.0196 -0.0002 -0.9998
vn -0.0192 -0.0071 -0.9998
vn -0.0286 -0.0104 0.9995
vn 0.0327 -0.0120 0.9994
vn 0.0244 -0.0750 0.9969
vn -0.0167 0.0229 -0.9996
vn 0.0211 0.0340 -0.9992
vn 0.0365 0.0058 0.9993
vn 0.0459 0.0069 -0.9989
vn -0.0463 -0.0009 -0.9989
vn -0.0713 -0.0010 0.9975
vn 0.0674 -0.0012 0.9977
vn -0.0243 -0.0652 -0.9976
vn 0.0344 -0.0899 -0.9954
vn -0.0398 0.0060 0.9992
vn 0.0269 0.0085 -0.9996
vn 0.0284 -0.0479 0.9984
vn -0.0205 -0.0303 -0.9993
vn -0.0274 -0.0750 0.9968
vn 0.0159 -0.0488 -0.9987
vn 0.0207 0.7528 -0.6579
vn 0.0288 0.7468 -0.6644
vn -0.0263 0.7479 -0.6633
vn -0.0200 0.6552 -0.7552
vn -0.0270 0.6552 -0.7550
vn 0.0281 0.6557 -0.7545
vn -0.0307 0.6543 0.7556
vn -0.0414 0.6541 0.7552
vn 0.0414 0.6543 0.7551
vn -0.0132 0.7511 0.6601
vn -0.0283 0.7504 0.6603
vn 0.0208 0.7527 0.6580
vn 0.0214 -0.7589 0.6508
vn 0.0262 -0.7528 0.6577
vn -0.0287 -0.7518 0.6588
vn -0.0160 -0.7593 -0.6505
vn -0.0207 -0.7575 -0.6525
vn 0.0282 -0.7553 -0.6548
vt 0.532984 0.663564
vt 0.532984 0.797235
vt 0.605000 0.797235
vt 0.605000 0.663564
vt 0.532482 0.801927
vt 0.604497 0.801927
vt 0.604497 0.873942
vt 0.532482 0.873942
vt 0.106751 0.498634
vt 0.009864 0.498634
vt 0.009864 0.004402
vt 0.106751 0.004402
vt 0.107096 0.865830
vt 0.010209 0.865830
vt 0.010209 0.006695
vt 0.107096 0.006695
vt 0.106298 0.865830
vt 0.009411 0.865830
vt 0.009411 0.006696
vt 0.106298 0.006696
vt 0.340019 0.992866
vt 0.340019 0.498634
vt 0.340019 0.004402
vt 0.571078 0.498634
vt 0.340019 0.004402
vt 0.571078 0.498634
vt 0.954283 0.425479
vt 0.954283 0.245844
vt 0.696128 0.245844
vt 0.696128 0.425479
vt 0.675637 0.675250
vt 0.670539 0.677627
vt 0.669192 0.370726
vt 0.675934 0.375132
vt 0.106751 0.992866
vt 0.009864 0.992866
vt 0.107457 0.865410
vt 0.010570 0.865410
vt 0.010570 0.006275
vt 0.107458 0.006275
vt 0.954283 0.784750
vt 0.954283 0.964386
vt 0.696128 0.964386
vt 0.696128 0.784750
vt 0.627438 0.091236
vt 0.627438 0.009427
vt 0.512670 0.009427
vt 0.512670 0.091236
vt 0.988020 0.804261
vt 0.980936 0.804261
vt 0.980936 0.992446
vt 0.988020 0.992446
vt 0.988020 0.804261
vt 0.106659 0.865410
vt 0.009772 0.865410
vt 0.009772 0.006275
vt 0.106659 0.006275
vt 0.106751 0.992866
vt 0.512670 0.254855
vt 0.512670 0.336665
vt 0.627438 0.336665
vt 0.627438 0.254855
vt 0.472330 0.014164
vt 0.472330 0.217207
vt 0.496978 0.217207
vt 0.496978 0.014164
vt 0.641919 0.006250
vt 0.990600 0.006250
vt 0.990600 0.209294
vt 0.641919 0.209294
vt 0.990600 0.233942
vt 0.641919 0.233942
vt 0.990600 0.209163
vt 0.641919 0.209163
vt 0.641919 0.233811
vt 0.990600 0.233811
vt 0.157247 0.330745
vt 0.268035 0.330745
vt 0.268035 0.583624
vt 0.157246 0.583624
vt 0.157235 0.006880
vt 0.268023 0.006880
vt 0.268035 0.210998
vt 0.157247 0.210998
vt 0.156885 0.258919
vt 0.267674 0.258919
vt 0.267674 0.511798
vt 0.156885 0.511798
vt 0.151333 0.624367
vt 0.151333 0.744115
vt 0.151333 0.251740
vt 0.151333 0.371488
vt 0.156448 0.613186
vt 0.156448 0.732934
vt 0.156448 0.240559
vt 0.156448 0.360307
vt 0.267237 0.360307
vt 0.267237 0.613186
vt 0.156087 0.541360
vt 0.156087 0.661108
vt 0.156087 0.168733
vt 0.156087 0.288481
vt 0.266875 0.288481
vt 0.266875 0.541360
vt 0.156460 0.005670
vt 0.267249 0.005670
vt 0.267237 0.240559
vt 0.151333 0.625780
vt 0.151333 0.745528
vt 0.151333 0.253153
vt 0.151333 0.372901
vt 0.262122 0.371488
vt 0.262122 0.624367
vt 0.262122 0.251740
vt 0.262122 0.744115
vt 0.262122 0.372901
vt 0.262122 0.253153
vt 0.262122 0.745528
vt 0.262122 0.625780
vt 0.340726 0.865410
vt 0.157246 0.703372
vt 0.268035 0.703372
vt 0.340365 0.006695
vt 0.267674 0.139171
vt 0.156885 0.139171
vt 0.339566 0.006696
vt 0.266875 0.168733
vt 0.339928 0.865410
vt 0.267237 0.732934
vt 0.345661 0.258919
vt 0.345661 0.571672
vt 0.267662 0.866435
vt 0.267674 0.631546
vt 0.345649 0.866435
vt 0.345224 0.300433
vt 0.345224 0.613187
vt 0.346022 0.270871
vt 0.346022 0.583624
vt 0.344862 0.288481
vt 0.344862 0.601234
vt 0.156099 0.865225
vt 0.266887 0.865225
vt 0.266875 0.661108
vt 0.344874 0.865225
vt 0.156885 0.631546
vt 0.156873 0.866435
vt 0.345235 0.005670
vt 0.346010 0.006880
vt 0.512670 0.091236
vt 0.627438 0.091236
vt 0.512670 0.173046
vt 0.627438 0.173046
vt 0.988020 0.239707
vt 0.980936 0.239707
vt 0.980936 0.427892
vt 0.988020 0.427892
vt 0.980936 0.616077
vt 0.988020 0.616077
vt 0.988020 0.427892
vt 0.988020 0.616077
vt 0.627438 0.254855
vt 0.512670 0.254855
vt 0.627438 0.173046
vt 0.512670 0.173046
vt 0.696128 0.425479
vt 0.954283 0.605115
vt 0.696128 0.605115
vt 0.696128 0.605115
s 0
f 1/1/1 2/2/1 4/3/1 3/4/1
f 3/4/2 4/3/2 8/2/2 7/1/2
f 7/4/3 8/3/3 6/2/3 5/1/3
f 5/1/4 6/2/4 2/3/4 1/4/4
f 3/5/5 7/6/5 5/7/5 1/8/5
f 26/9/6 24/10/6 12/11/6 11/12/6
f 32/13/7 31/14/7 16/15/7 15/16/7
f 41/9/8 42/10/8 14/11/8 13/12/8
f 30/17/9 28/18/9 10/19/9 9/20/9
f 18/21/10 43/22/10 17/23/10 21/24/10
f 19/21/11 44/22/11 20/25/11 22/26/11
f 158/27/12 27/28/12 38/29/12 170/30/12
f 23/31/13 27/32/13 36/33/13 33/34/13
f 15/35/8 16/36/8 42/10/8 41/9/8
f 11/37/14 12/38/14 31/39/14 32/40/14
f 160/41/15 29/42/15 35/43/15 164/44/15
f 29/32/16 25/31/16 34/34/16 35/33/16
f 27/32/17 23/31/17 37/34/17 38/33/17
f 25/31/18 29/32/18 39/33/18 40/34/18
f 155/45/19 25/46/19 40/47/19 169/48/19
f 166/49/20 161/50/20 33/51/20 36/52/20
f 167/53/21 170/50/21 38/51/21 37/52/21
f 13/54/22 14/55/22 28/56/22 30/57/22
f 9/58/6 10/36/6 24/10/6 26/9/6
f 157/59/23 23/60/23 33/61/23 161/62/23
f 46/63/24 50/64/24 47/65/24 51/66/24
f 49/64/25 45/63/25 52/66/25 48/65/25
f 49/67/26 50/68/26 46/69/26 45/70/26
f 45/70/27 46/69/27 51/71/27 52/72/27
f 50/73/28 49/74/28 48/75/28 47/76/28
f 54/63/24 58/64/24 55/65/24 59/66/24
f 57/64/29 53/63/29 60/66/29 56/65/29
f 57/67/30 58/68/30 54/69/30 53/70/30
f 53/70/31 54/69/31 59/71/31 60/72/31
f 58/73/32 57/74/32 56/75/32 55/76/32
f 62/63/24 66/64/24 63/65/24 67/66/24
f 65/64/33 61/63/33 68/66/33 64/65/33
f 65/67/34 66/68/34 62/69/34 61/70/34
f 61/70/35 62/69/35 67/71/35 68/72/35
f 66/73/36 65/74/36 64/75/36 63/76/36
f 70/63/24 74/64/24 71/65/24 75/66/24
f 73/64/25 69/63/25 76/66/25 72/65/25
f 73/67/37 74/68/37 70/69/37 69/70/37
f 69/70/38 70/69/38 75/71/38 76/72/38
f 74/73/39 73/74/39 72/75/39 71/76/39
f 78/63/24 82/64/24 79/65/24 83/66/24
f 81/64/40 77/63/40 84/66/40 80/65/40
f 81/67/41 82/68/41 78/69/41 77/70/41
f 77/70/42 78/69/42 83/71/42 84/72/42
f 82/73/43 81/74/43 80/75/43 79/76/43
f 86/63/24 90/64/24 87/65/24 91/66/24
f 89/64/44 85/63/44 92/66/44 88/65/44
f 89/67/45 90/68/45 86/69/45 85/70/45
f 85/70/46 86/69/46 91/71/46 92/72/46
f 90/73/47 89/74/47 88/75/47 87/76/47
f 94/63/24 98/64/24 95/65/24 99/66/24
f 97/64/25 93/63/25 100/66/25 96/65/25
f 97/67/48 98/68/48 94/69/48 93/70/48
f 93/70/49 94/69/49 99/71/49 100/72/49
f 98/73/50 97/74/50 96/75/50 95/76/50
f 102/63/24 106/64/24 103/65/24 107/66/24
f 105/64/25 101/63/25 108/66/25 104/65/25
f 105/67/51 106/68/51 102/69/51 101/70/51
f 101/70/49 102/69/49 107/71/49 108/72/49
f 106/73/50 105/74/50 104/75/50 103/76/50
f 110/63/24 114/64/24 111/65/24 115/66/24
f 113/64/52 109/63/52 116/66/52 112/65/52
f 113/67/53 114/68/53 110/69/53 109/70/53
f 109/70/54 110/69/54 115/71/54 116/72/54
f 114/73/55 113/74/55 112/75/55 111/76/55
f 118/63/24 122/64/24 119/65/24 123/66/24
f 121/64/56 117/63/56 124/66/56 120/65/56
f 121/67/57 122/68/57 118/69/57 117/70/57
f 117/70/58 118/69/58 123/71/58 124/72/58
f 122/73/59 121/74/59 120/75/59 119/76/59
f 126/63/24 130/64/24 127/65/24 131/66/24
f 129/64/60 125/63/60 132/66/60 128/65/60
f 129/67/61 130/68/61 126/69/61 125/70/61
f 125/70/62 126/69/62 131/71/62 132/72/62
f 130/73/63 129/74/63 128/75/63 127/76/63
f 134/63/24 138/64/24 135/65/24 139/66/24
f 137/64/25 133/63/25 140/66/25 136/65/25
f 137/67/64 138/68/64 134/69/64 133/70/64
f 133/70/65 134/69/65 139/71/65 140/72/65
f 138/73/66 137/74/66 136/75/66 135/76/66
f 119/77/67 120/78/67 116/79/67 115/80/67
f 149/81/68 150/82/68 124/83/68 123/84/68
f 135/85/69 136/86/69 132/87/69 131/88/69
f 99/89/70 95/90/70 15/35/70 41/9/70
f 107/91/71 103/92/71 41/9/71 13/12/71
f 51/93/72 47/94/72 13/54/72 30/57/72
f 51/93/73 30/57/73 59/95/73 55/96/73
f 55/96/74 56/97/74 52/98/74 51/93/74
f 67/99/75 63/100/75 30/17/75 9/20/75
f 67/99/76 9/20/76 75/101/76 71/102/76
f 71/102/77 72/103/77 68/104/77 67/99/77
f 151/105/78 153/106/78 60/107/78 59/95/78
f 83/108/79 79/109/79 9/58/79 26/9/79
f 91/110/80 87/111/80 26/9/80 11/12/80
f 119/77/81 115/80/81 11/37/81 32/40/81
f 135/85/82 131/88/82 32/13/82 15/16/82
f 103/92/83 104/112/83 100/113/83 99/89/83
f 104/112/84 108/114/84 20/25/84 44/22/84
f 96/115/85 100/113/85 44/22/85 19/21/85
f 20/25/86 108/114/86 107/91/86 13/12/86
f 96/115/87 19/21/87 15/35/87 95/90/87
f 104/112/88 44/22/88 100/113/88
f 41/9/89 103/92/89 99/89/89
f 88/116/90 92/117/90 17/23/90 43/22/90
f 80/118/91 84/119/91 43/22/91 18/21/91
f 87/111/92 88/116/92 84/119/92 83/108/92
f 84/119/93 88/116/93 43/22/93
f 26/9/94 87/111/94 83/108/94
f 80/118/95 18/21/95 9/58/95 79/109/95
f 17/23/96 92/117/96 91/110/96 11/12/96
f 17/120/97 11/37/97 111/121/97 112/122/97
f 15/16/98 19/123/98 140/124/98 139/125/98
f 9/20/99 18/126/99 76/127/99 75/101/99
f 20/128/100 13/54/100 47/94/100 48/129/100
f 132/87/101 136/86/101 148/130/101 147/131/101
f 150/132/102 128/133/102 147/131/102 154/134/102
f 52/98/103 56/97/103 142/135/103 141/136/103
f 116/79/104 120/78/104 146/137/104 145/138/104
f 68/104/105 72/103/105 144/139/105 143/140/105
f 116/79/106 145/138/106 17/120/106 112/122/106
f 148/130/107 136/86/107 140/124/107 19/123/107
f 52/98/108 141/136/108 20/128/108 48/129/108
f 144/139/109 72/103/109 76/127/109 18/126/109
f 30/17/110 63/100/110 151/141/110
f 15/16/111 139/125/111 135/85/111
f 11/37/112 115/80/112 111/121/112
f 153/142/113 64/143/113 143/140/113 152/144/113
f 124/83/114 146/137/114 120/78/114
f 132/87/115 147/131/115 128/133/115
f 60/107/116 142/135/116 56/97/116
f 68/104/117 143/140/117 64/143/117
f 32/13/118 131/88/118 127/145/118 149/146/118
f 32/40/119 123/84/119 119/77/119
f 60/107/120 153/106/120 152/147/120 142/135/120
f 124/83/121 150/82/121 154/148/121 146/137/121
f 63/100/122 64/143/122 153/142/122 151/141/122
f 127/145/123 128/133/123 150/132/123 149/146/123
f 59/95/124 30/57/124 151/105/124
f 123/84/125 32/40/125 149/81/125
f 25/47/126 155/149/126 163/150/126 34/46/126
f 155/149/127 156/151/127 162/152/127 163/150/127
f 156/151/128 157/59/128 161/62/128 162/152/128
f 40/153/129 39/154/129 172/155/129 169/156/129
f 169/156/130 172/155/130 171/157/130 168/158/130
f 168/158/131 171/157/131 170/50/131 167/53/131
f 35/153/132 34/154/132 163/155/132 164/159/132
f 164/159/133 163/155/133 162/157/133 165/160/133
f 165/160/134 162/157/134 161/50/134 166/49/134
f 23/61/135 157/161/135 167/162/135 37/60/135
f 157/161/136 156/163/136 168/164/136 167/162/136
f 156/163/137 155/45/137 169/48/137 168/164/137
f 27/28/138 158/27/138 166/165/138 36/29/138
f 158/27/139 159/166/139 165/167/139 166/165/139
f 159/166/140 160/41/140 164/44/140 165/167/140
f 29/42/141 160/41/141 172/44/141 39/43/141
f 160/41/142 159/166/142 171/168/142 172/44/142
f 159/166/143 158/27/143 170/30/143 171/168/143
