# Blender 4.4.3
# www.blender.org
mtllib Med_House_Window.mtl
o House_Window
v -0.236503 -0.390707 0.030738
v -0.212318 0.350753 0.030738
v -0.236503 -0.390707 -0.030738
v -0.236503 0.390707 -0.030738
v 0.236503 -0.390707 0.030738
v 0.212318 0.350753 0.030738
v 0.236503 -0.390707 -0.030738
v 0.236503 0.390707 -0.030738
v -0.236503 0.390707 0.030738
v -0.212318 -0.350753 0.030738
v 0.236503 0.390707 0.030738
v -0.212318 -0.350753 0.003764
v 0.212318 -0.350753 0.030738
v 0.212318 -0.350753 0.003764
v -0.212318 0.350753 0.003764
v 0.212318 0.350753 0.003764
vn -1.0000 -0.0000 -0.0000
vn 1.0000 -0.0000 -0.0000
vn -0.0000 1.0000 -0.0000
vn -0.0000 -0.0000 1.0000
vn -0.0000 -1.0000 -0.0000
vt 0.784324 0.336272
vt 0.784324 0.578978
vt 0.801170 0.578978
vt 0.801170 0.336272
vt 0.632061 0.350886
vt 0.632061 0.575257
vt 0.624326 0.588036
vt 0.624326 0.338108
vt 0.767878 0.575257
vt 0.767878 0.350886
vt 0.775613 0.338108
vt 0.775613 0.588036
vt 0.980280 0.374297
vt 0.980280 0.583040
vt 0.853923 0.583040
vt 0.853923 0.374297
s 0
f 1/1/1 9/2/1 4/3/1 3/4/1
f 7/4/2 8/3/2 11/2/2 5/1/2
f 10/1/3 13/2/3 14/3/3 12/4/3
f 8/1/3 4/2/3 9/3/3 11/4/3
f 10/5/4 2/6/4 9/7/4 1/8/4
f 6/9/4 13/10/4 5/11/4 11/12/4
f 13/10/4 10/5/4 1/8/4 5/11/4
f 2/6/4 6/9/4 11/12/4 9/7/4
f 14/13/4 16/14/4 15/15/4 12/16/4
f 6/1/5 2/2/5 15/3/5 16/4/5
f 13/1/1 6/2/1 16/3/1 14/4/1
f 2/2/2 10/1/2 12/4/2 15/3/2
