# Blender 4.4.3
# www.blender.org
mtllib Med_House_Door.mtl
o House_Door
v -0.277767 0.000000 0.022113
v -0.253582 1.024006 0.022113
v -0.277767 0.001675 -0.039363
v -0.277767 1.063959 -0.039363
v 0.277767 0.000000 0.022113
v 0.253582 1.024006 0.022113
v 0.277767 -0.001794 -0.039363
v 0.277767 1.063959 -0.039363
v -0.277767 1.063959 0.022113
v -0.253582 -0.000628 0.022113
v 0.277767 1.063959 0.022113
v -0.253582 -0.000628 -0.004861
v 0.253582 -0.000628 0.022113
v 0.253582 -0.000628 -0.004861
v -0.253582 1.024006 -0.004861
v 0.253582 1.024006 -0.004861
vn -1.0000 -0.0000 -0.0000
vn 1.0000 -0.0000 -0.0000
vn -0.0000 1.0000 -0.0000
vn -0.0000 -0.0000 1.0000
vn -0.0000 -1.0000 -0.0000
vt 0.810609 0.321285
vt 0.810609 0.621122
vt 0.831420 0.621122
vt 0.831420 0.321285
vt 0.130056 0.169756
vt 0.463240 0.169756
vt 0.482216 0.158269
vt 0.111079 0.158269
vt 0.463240 0.169756
vt 0.130056 0.169756
vt 0.111079 0.158269
vt 0.482216 0.158269
vt 0.227310 0.661580
vt 0.025626 0.661580
vt 0.014140 0.680556
vt 0.238796 0.680556
vt 0.981185 0.647429
vt 0.981185 0.979329
vt 0.780279 0.979329
vt 0.780279 0.647429
s 0
f 1/1/1 9/2/1 4/3/1 3/4/1
f 7/4/2 8/3/2 11/2/2 5/1/2
f 8/1/3 4/2/3 9/3/3 11/4/3
f 10/5/4 2/6/4 9/7/4 1/8/4
f 6/9/4 13/10/4 5/11/4 11/12/4
f 2/13/4 6/14/4 11/15/4 9/16/4
f 14/17/4 16/18/4 15/19/4 12/20/4
f 6/1/5 2/2/5 15/3/5 16/4/5
f 13/1/1 6/2/1 16/3/1 14/4/1
f 2/2/2 10/1/2 12/4/2 15/3/2
