# Blender 4.4.3
# www.blender.org
mtllib Med_House_Window_Shutter.mtl
o House_Window_Shutter
v -0.234204 -0.352037 0.056017
v -0.234204 0.358030 0.056017
v -0.234204 -0.352037 0.030727
v -0.234204 0.358030 0.030727
v 0.014724 -0.352037 0.056017
v 0.014724 0.358030 0.056017
v 0.014724 -0.352037 0.030727
v 0.014724 0.358030 0.030727
vn -1.0000 -0.0000 -0.0000
vn 1.0000 -0.0000 -0.0000
vn -0.0000 -0.0000 1.0000
vn -0.0000 -1.0000 -0.0000
vn -0.0000 1.0000 -0.0000
vt 0.489778 0.189342
vt 0.489778 0.571621
vt 0.476162 0.571621
vt 0.476162 0.189342
vt 0.489778 0.189343
vt 0.489778 0.571620
vt 0.476162 0.571620
vt 0.476162 0.189343
vt 0.601812 0.325643
vt 0.601812 0.600970
vt 0.505291 0.600970
vt 0.505291 0.325643
vt 0.983737 0.635283
vt 0.849723 0.635283
vt 0.849723 0.621668
vt 0.983737 0.621668
vt 0.983738 0.635283
vt 0.849722 0.635283
vt 0.849722 0.621668
vt 0.983738 0.621668
s 0
f 1/1/1 2/2/1 4/3/1 3/4/1
f 7/5/2 8/6/2 6/7/2 5/8/2
f 5/9/3 6/10/3 2/11/3 1/12/3
f 3/13/4 7/14/4 5/15/4 1/16/4
f 8/17/5 4/18/5 2/19/5 6/20/5
