# Blender 4.4.3
# www.blender.org
mtllib Med_House_Wall.mtl
o House_Fence
v -1.063961 -0.300000 0.120108
v -1.063961 -0.300000 -0.127858
v 1.063963 -0.300000 0.120108
v 1.063963 -0.300000 -0.127858
v -1.063961 0.817948 0.120108
v -1.063961 0.894027 0.044029
v -1.063961 0.871744 0.097825
v -1.063961 0.894027 -0.051779
v -1.063961 0.817948 -0.127858
v -1.063961 0.871744 -0.105575
v 1.063963 0.894027 0.044029
v 1.063963 0.817948 0.120108
v 1.063963 0.871744 0.097825
v 1.063963 0.817948 -0.127858
v 1.063963 0.894027 -0.051779
v 1.063963 0.871744 -0.105575
v 0.354655 -0.300000 -0.137112
v -0.354653 -0.300000 -0.109595
v -0.354653 -0.300000 0.141311
v 0.354655 -0.300000 0.101073
v -0.354653 0.911398 -0.033362
v 0.354651 0.888510 -0.042540
v 0.354651 0.867843 -0.088112
v -0.354653 0.884027 -0.085443
v 0.354651 0.817948 -0.106988
v -0.354653 0.817948 -0.107015
v 0.354651 0.888510 0.038620
v -0.354653 0.911398 0.059391
v -0.354653 0.884027 0.111472
v 0.354651 0.867843 0.084192
v -0.354653 0.817948 0.133045
v 0.354651 0.817948 0.103068
vn -0.0241 0.0037 0.9997
vn 0.0276 0.0012 -0.9996
vn -0.0254 -0.0009 0.9997
vn -0.0082 0.0135 -0.9999
vn -0.0227 0.1766 0.9840
vn -0.0267 0.9762 0.2152
vn -0.0260 0.6754 0.7370
vn -0.0162 0.9750 -0.2216
vn 0.0263 0.1744 -0.9843
vn 0.0094 0.6696 -0.7427
vn -0.0098 0.9791 0.2033
vn -0.0237 0.1868 0.9821
vn -0.0176 0.6946 0.7192
vn -0.0174 0.1937 -0.9809
vn -0.0109 0.9789 -0.2040
vn -0.0215 0.6939 -0.7198
vn -0.0138 0.0140 -0.9998
vn 0.0041 0.0079 -1.0000
vn 0.0127 0.0033 0.9999
vn 0.0120 0.0010 0.9999
vn 0.0054 0.9758 -0.2186
vn 0.0082 0.9765 -0.2153
vn -0.0046 0.6792 -0.7339
vn 0.0106 0.6737 -0.7389
vn -0.0131 0.1846 -0.9827
vn 0.0087 0.1749 -0.9846
vn 0.0135 0.9770 0.2127
vn 0.0051 0.9745 0.2245
vn 0.0089 0.6685 0.7436
vn 0.0133 0.6813 0.7318
vn 0.0118 0.1718 0.9851
vn 0.0114 0.1785 0.9839
vt 0.645837 0.297452
vt 0.506683 0.297452
vt 0.506683 0.278656
vt 0.645837 0.278656
vt 0.644290 0.027128
vt 0.644290 0.248298
vt 0.503964 0.248298
vt 0.503964 0.027128
vt 0.784992 0.297452
vt 0.924147 0.297452
vt 0.924147 0.308006
vt 0.784992 0.308006
vt 0.644293 0.258960
vt 0.503967 0.258999
vt 0.506683 0.268102
vt 0.645837 0.268102
vt 0.784648 0.258999
vt 0.924974 0.258999
vt 0.924974 0.248356
vt 0.784648 0.248356
vt 0.784587 0.027167
vt 0.924913 0.027128
vt 0.503934 0.027245
vt 0.503996 0.248356
vt 0.644322 0.248356
vt 0.644261 0.027206
vt 0.503996 0.258999
vt 0.644322 0.258999
vt 0.924147 0.278656
vt 0.784992 0.278656
vt 0.784992 0.268102
vt 0.924147 0.268102
vt 0.924945 0.258882
vt 0.784619 0.258921
vt 0.784616 0.248298
vt 0.924942 0.248298
vt 0.645837 0.308006
vt 0.506683 0.308006
vt 0.924942 0.027128
vt 0.784616 0.027128
s 1
f 21/1/21 8/2/8 6/3/6 28/4/28
f 17/5/17 25/6/25 14/7/14 4/8/4
f 22/9/22 15/10/15 16/11/16 23/12/23
f 23/13/23 16/14/16 14/7/14 25/6/25
f 28/4/28 6/3/6 7/15/7 29/16/29
f 29/17/29 7/18/7 5/19/5 31/20/31
f 19/21/19 31/20/31 5/19/5 1/22/1
f 3/23/3 12/24/12 32/25/32 20/26/20
f 20/26/20 32/25/32 31/20/31 19/21/19
f 13/27/13 30/28/30 32/25/32 12/24/12
f 30/28/30 29/17/29 31/20/31 32/25/32
f 11/29/11 27/30/27 30/31/30 13/32/13
f 27/30/27 28/4/28 29/16/29 30/31/30
f 10/33/10 24/34/24 26/35/26 9/36/9
f 24/34/24 23/13/23 25/6/25 26/35/26
f 8/2/8 21/1/21 24/37/24 10/38/10
f 21/1/21 22/9/22 23/12/23 24/37/24
f 2/39/2 9/36/9 26/35/26 18/40/18
f 18/40/18 26/35/26 25/6/25 17/5/17
f 15/10/15 22/9/22 27/30/27 11/29/11
f 22/9/22 21/1/21 28/4/28 27/30/27
