# Blender 4.4.3
# www.blender.org
mtllib Planter_Med_Dirt.mtl
o Planter_Large_Dirt
v -0.257396 0.573582 0.237476
v 0.265440 0.573582 0.237476
v -0.257396 0.573582 -0.245190
v -0.257396 0.573582 -0.128689
v -0.257396 0.573582 0.084918
v -0.126687 0.573582 0.237476
v 0.004022 0.573582 0.237476
v 0.134731 0.573582 0.237476
v 0.265440 0.573582 0.084918
v 0.265440 0.573582 -0.128689
v 0.265440 0.573582 -0.245190
v -0.126687 0.605577 0.084918
v -0.126687 0.564339 -0.128689
v -0.126687 0.573882 -0.245190
v 0.004022 0.610314 0.084918
v 0.004022 0.613520 -0.128689
v 0.004022 0.576046 -0.245190
v 0.134731 0.584477 0.084918
v 0.134731 0.564339 -0.128689
v 0.134731 0.570812 -0.245190
vn -0.1208 0.9873 0.1035
vn 0.0416 0.9985 0.0357
vn 0.0342 0.9986 0.0409
vn -0.0262 0.9993 -0.0275
vn -0.1041 0.9946 0.0039
vn -0.0695 0.9843 0.1621
vn 0.0398 0.9815 0.1870
vn 0.0696 0.9931 0.0948
vn 0.0240 0.9997 -0.0057
vn -0.0198 0.9998 -0.0097
vn -0.0459 0.9986 0.0277
vn -0.1078 0.9935 0.0361
vn -0.1108 0.9917 -0.0646
vn -0.0794 0.9961 -0.0384
vn 0.0391 0.9973 0.0626
vn 0.0224 0.9953 -0.0941
vn 0.0059 0.9921 -0.1255
vn 0.1068 0.9939 0.0264
vn 0.1097 0.9929 -0.0470
vn 0.0790 0.9956 -0.0513
vt 0.000000 0.000000
vt 0.250000 0.000000
vt 0.250000 0.250000
vt 0.000000 0.250000
vt 0.250000 0.500000
vt 0.000000 0.500000
vt 0.250000 0.750000
vt 0.000000 0.750000
vt 0.500000 0.000000
vt 0.500000 0.250000
vt 0.500000 0.500000
vt 0.500000 0.750000
vt 0.750000 0.000000
vt 0.750000 0.250000
vt 0.750000 0.500000
vt 0.750000 0.750000
vt 1.000000 0.000000
vt 1.000000 0.250000
vt 1.000000 0.500000
vt 1.000000 0.750000
s 1
usemtl Dirt
f 1/1/1 6/2/6 12/3/12 5/4/5
f 5/4/5 12/3/12 13/5/13 4/6/4
f 4/6/4 13/5/13 14/7/14 3/8/3
f 6/2/6 7/9/7 15/10/15 12/3/12
f 12/3/12 15/10/15 16/11/16 13/5/13
f 13/5/13 16/11/16 17/12/17 14/7/14
f 7/9/7 8/13/8 18/14/18 15/10/15
f 15/10/15 18/14/18 19/15/19 16/11/16
f 16/11/16 19/15/19 20/16/20 17/12/17
f 8/13/8 2/17/2 9/18/9 18/14/18
f 18/14/18 9/18/9 10/19/10 19/15/19
f 19/15/19 10/19/10 11/20/11 20/16/20
