# Blender 4.4.3
# www.blender.org
mtllib Planter_Large_Dirt.mtl
o Planter_Large_Dirt
v -0.257396 0.573582 -0.245190
v -0.257396 0.553700 -0.128689
v -0.257396 0.573582 0.084918
v -0.039382 0.578012 0.237476
v 0.265440 0.549007 0.084918
v 0.265440 0.553258 -0.128689
v -0.126687 0.605577 0.084918
v -0.126687 0.564339 -0.128689
v 0.004022 0.610314 0.084918
v 0.004022 0.574672 -0.128689
v 0.004022 0.576046 -0.245190
v 0.134731 0.584477 0.084918
v 0.134731 0.564339 -0.128689
v -0.251753 0.570305 0.723978
v 0.271083 0.570305 0.723978
v -0.251753 0.570305 0.241311
v -0.251753 0.570305 0.357812
v -0.251753 0.570305 0.571419
v -0.121044 0.570305 0.723978
v 0.009665 0.570305 0.723978
v 0.140374 0.570305 0.723978
v 0.271083 0.570305 0.571419
v 0.271083 0.570305 0.357812
v 0.271083 0.570305 0.241311
v -0.121044 0.602300 0.571419
v -0.121044 0.577405 0.357812
v -0.121044 0.570605 0.241311
v 0.009665 0.607038 0.559015
v -0.033739 0.599102 0.357812
v 0.140374 0.581201 0.571419
v 0.140374 0.577121 0.357812
v 0.140374 0.567536 0.241311
v 0.268833 0.558269 -0.243126
v -0.254003 0.558269 -0.632625
v -0.254003 0.558269 -0.516125
v -0.254003 0.558269 -0.395684
v -0.123294 0.558269 -0.243126
v 0.138124 0.558269 -0.243126
v 0.268833 0.558269 -0.395684
v 0.268833 0.558269 -0.516125
v 0.268833 0.558269 -0.632625
v -0.123294 0.590264 -0.395684
v -0.123294 0.549026 -0.516125
v -0.123294 0.558569 -0.632625
v 0.007415 0.595001 -0.395684
v 0.007415 0.592246 -0.516125
v 0.007415 0.560733 -0.632625
v 0.138124 0.569164 -0.395684
v 0.138124 0.549026 -0.516125
v 0.138124 0.555499 -0.632625
vn -0.0232 0.9981 0.0571
vn -0.0719 0.9966 -0.0405
vn -0.1421 0.9898 -0.0098
vn -0.0132 0.9991 0.0396
vn 0.1497 0.9884 -0.0274
vn 0.1085 0.9939 -0.0199
vn -0.0985 0.9951 0.0033
vn -0.0771 0.9946 -0.0697
vn 0.0420 0.9990 0.0161
vn 0.0194 0.9960 -0.0873
vn 0.0181 0.9982 0.0576
vn 0.1375 0.9905 -0.0019
vn 0.1155 0.9922 -0.0468
vn -0.1208 0.9873 0.1035
vn 0.0416 0.9985 0.0357
vn -0.0758 0.9959 0.0489
vn -0.0881 0.9952 -0.0434
vn -0.1347 0.9906 0.0231
vn -0.0645 0.9853 0.1580
vn 0.0414 0.9828 0.1799
vn 0.0661 0.9936 0.0919
vn 0.0546 0.9984 0.0131
vn 0.0415 0.9988 -0.0253
vn 0.0692 0.9972 -0.0299
vn -0.0986 0.9937 0.0528
vn -0.1181 0.9908 -0.0661
vn -0.0948 0.9944 0.0459
vn 0.0376 0.9977 0.0561
vn -0.0186 0.9958 -0.0893
vn 0.0885 0.9954 0.0354
vn 0.0831 0.9949 -0.0567
vn 0.0865 0.9962 -0.0071
vn 0.0420 0.9990 0.0163
vn 0.0342 0.9986 0.0409
vn -0.0258 0.9976 -0.0641
vn -0.0748 0.9955 -0.0574
vn -0.0603 0.9962 0.0632
vn 0.0873 0.9958 0.0278
vn 0.0240 0.9994 -0.0239
vn -0.0198 0.9994 -0.0278
vn -0.0459 0.9986 0.0277
vn -0.1046 0.9940 -0.0310
vn -0.0992 0.9902 -0.0985
vn -0.0686 0.9973 -0.0260
vn 0.0397 0.9992 -0.0021
vn 0.0229 0.9926 -0.1194
vn 0.0059 0.9949 -0.1004
vn 0.1179 0.9930 -0.0103
vn 0.0986 0.9931 -0.0633
vn 0.0683 0.9969 -0.0390
vt 0.000000 0.000000
vt 0.250000 0.000000
vt 0.250000 0.250000
vt 0.000000 0.250000
vt 0.250000 0.500000
vt 0.000000 0.500000
vt 0.250000 0.750000
vt 0.000000 0.750000
vt 0.500000 0.000000
vt 0.500000 0.250000
vt 0.500000 0.500000
vt 0.500000 0.750000
vt 0.750000 0.000000
vt 0.750000 0.250000
vt 0.750000 0.500000
vt 0.750000 0.750000
vt 1.000000 0.000000
vt 1.000000 0.250000
vt 1.000000 0.500000
vt 1.000000 0.750000
s 1
usemtl Dirt
f 16/1/16 27/2/27 7/3/7 3/4/3
f 3/4/3 7/3/7 8/5/8 2/6/2
f 2/6/2 8/5/8 37/7/37 1/8/1
f 27/2/27 4/9/4 9/10/9 7/3/7
f 7/3/7 9/10/9 10/11/10 8/5/8
f 8/5/8 10/11/10 11/12/11 37/7/37
f 4/9/4 32/13/32 12/14/12 9/10/9
f 9/10/9 12/14/12 13/15/13 10/11/10
f 10/11/10 13/15/13 38/16/38 11/12/11
f 32/13/32 24/17/24 5/18/5 12/14/12
f 12/14/12 5/18/5 6/19/6 13/15/13
f 13/15/13 6/19/6 33/20/33 38/16/38
f 14/1/14 19/2/19 25/3/25 18/4/18
f 18/4/18 25/3/25 26/5/26 17/6/17
f 17/6/17 26/5/26 27/7/27 16/8/16
f 19/2/19 20/9/20 28/10/28 25/3/25
f 25/3/25 28/10/28 29/11/29 26/5/26
f 26/5/26 29/11/29 4/12/4 27/7/27
f 20/9/20 21/13/21 30/14/30 28/10/28
f 28/10/28 30/14/30 31/15/31 29/11/29
f 29/11/29 31/15/31 32/16/32 4/12/4
f 21/13/21 15/17/15 22/18/22 30/14/30
f 30/14/30 22/18/22 23/19/23 31/15/31
f 31/15/31 23/19/23 24/20/24 32/16/32
f 1/1/1 37/2/37 42/3/42 36/4/36
f 36/4/36 42/3/42 43/5/43 35/6/35
f 35/6/35 43/5/43 44/7/44 34/8/34
f 37/2/37 11/9/11 45/10/45 42/3/42
f 42/3/42 45/10/45 46/11/46 43/5/43
f 43/5/43 46/11/46 47/12/47 44/7/44
f 11/9/11 38/13/38 48/14/48 45/10/45
f 45/10/45 48/14/48 49/15/49 46/11/46
f 46/11/46 49/15/49 50/16/50 47/12/47
f 38/13/38 33/17/33 39/18/39 48/14/48
f 48/14/48 39/18/39 40/19/40 49/15/49
f 49/15/49 40/19/40 41/20/41 50/16/50
