# Blender 4.4.3
# www.blender.org
mtllib Planter_Med.mtl
o Planter_Med
v -0.249056 0.228666 0.253429
v -0.271083 0.228666 0.226922
v -0.271083 0.228666 -0.231497
v -0.249056 0.228666 -0.258004
v 0.274399 0.228666 0.226922
v 0.252372 0.228666 0.253429
v 0.252372 0.228666 -0.258004
v 0.274399 0.228666 -0.231497
v -0.255473 0.291848 0.208136
v -0.233446 0.291848 0.234644
v -0.233446 0.291848 -0.239219
v -0.255473 0.291848 -0.212712
v 0.258789 0.291848 -0.212712
v 0.236762 0.291848 -0.239219
v 0.236762 0.291848 0.234644
v 0.258789 0.291848 0.208136
v -0.260529 0.613105 0.213832
v -0.238179 0.613105 0.240729
v -0.233348 0.607020 0.234644
v -0.255473 0.607020 0.208019
v -0.255473 0.607020 -0.212594
v -0.233348 0.607020 -0.239219
v -0.238179 0.613105 -0.245304
v -0.260529 0.613105 -0.218408
v 0.258789 0.607020 0.208019
v 0.236664 0.607020 0.234644
v 0.241495 0.613105 0.240729
v 0.263845 0.613105 0.213832
v 0.236664 0.607020 -0.239219
v 0.258789 0.607020 -0.212594
v 0.263845 0.613105 -0.218408
v 0.241495 0.613105 -0.245304
v -0.271083 0.607020 0.226804
v -0.248958 0.607020 0.253429
v -0.243676 0.613105 0.247344
v -0.266027 0.613105 0.220448
v -0.266027 0.613105 -0.225023
v -0.243676 0.613105 -0.251919
v -0.248958 0.607020 -0.258004
v -0.271083 0.607020 -0.231379
v 0.246992 0.613105 -0.251919
v 0.269343 0.613105 -0.225023
v 0.274399 0.607020 -0.231379
v 0.252274 0.607020 -0.258004
v 0.269343 0.613105 0.220448
v 0.246992 0.613105 0.247344
v 0.252274 0.607020 0.253429
v 0.274399 0.607020 0.226804
v -0.276797 -0.023108 0.275594
v -0.276797 0.222777 0.275594
v -0.276797 -0.023108 0.203510
v -0.276797 0.222777 0.203510
v -0.206342 -0.023108 0.275594
v -0.206342 0.222777 0.275594
v -0.206342 -0.023108 0.203510
v -0.206342 0.222777 0.203510
v 0.190123 -0.023108 0.275594
v 0.190123 0.222777 0.275594
v 0.190123 -0.023108 0.203510
v 0.190123 0.222777 0.203510
v 0.260578 -0.023108 0.275594
v 0.260578 0.222777 0.275594
v 0.260578 -0.023108 0.203510
v 0.260578 0.222777 0.203510
v -0.276797 -0.023108 -0.191736
v -0.276797 0.222777 -0.191736
v -0.276797 -0.023108 -0.263819
v -0.276797 0.222777 -0.263819
v -0.206342 -0.023108 -0.191736
v -0.206342 0.222777 -0.191736
v -0.206342 -0.023108 -0.263819
v -0.206342 0.222777 -0.263819
v 0.190123 -0.023108 -0.191736
v 0.190123 0.222777 -0.191736
v 0.190123 -0.023108 -0.263819
v 0.190123 0.222777 -0.263819
v 0.260578 -0.023108 -0.191736
v 0.260578 0.222777 -0.191736
v 0.260578 -0.023108 -0.263819
v 0.260578 0.222777 -0.263819
v 0.299704 0.183158 -0.289356
v 0.299704 0.183158 0.291932
v -0.300296 0.183158 -0.289356
v -0.300296 0.183158 0.291932
v -0.276874 0.276275 -0.274590
v -0.276874 0.298641 -0.274590
v 0.276283 0.298641 -0.274590
v 0.276283 0.276275 -0.274590
v -0.276874 0.380575 -0.274590
v -0.276874 0.402940 -0.274590
v 0.276283 0.402940 -0.274590
v 0.276283 0.380575 -0.274590
v -0.276874 0.484875 -0.274590
v -0.276874 0.507240 -0.274590
v 0.276283 0.507240 -0.274590
v 0.276283 0.484875 -0.274590
v 0.276283 0.298641 0.277166
v 0.276283 0.276275 0.277166
v 0.276283 0.402940 0.277166
v 0.276283 0.380575 0.277166
v 0.276283 0.507240 0.277166
v 0.276283 0.484875 0.277166
v -0.276874 0.276275 0.277166
v -0.276874 0.298641 0.277166
v -0.276874 0.380575 0.277166
v -0.276874 0.402940 0.277166
v -0.276874 0.484875 0.277166
v -0.276874 0.507240 0.277166
v 0.274955 0.351965 0.264043
v -0.275546 0.351965 0.264043
v 0.274955 0.351965 -0.261467
v -0.275546 0.351965 -0.261467
v 0.299704 0.596640 -0.289356
v 0.295225 0.600411 -0.284307
v 0.299704 0.596640 0.291932
v 0.295225 0.600411 0.286884
v -0.295816 0.600411 -0.284307
v -0.300296 0.596640 -0.289356
v -0.295816 0.600411 0.286884
v -0.300296 0.596640 0.291932
v 0.299704 0.510957 -0.289356
v 0.295322 0.507240 -0.286593
v 0.295322 0.484875 -0.286593
v 0.299704 0.481157 -0.289356
v 0.299704 0.406658 -0.289356
v 0.295322 0.402940 -0.286593
v 0.295322 0.380575 -0.286593
v 0.299704 0.376858 -0.289356
v 0.299704 0.302358 -0.289356
v 0.295322 0.298641 -0.286593
v 0.295322 0.276275 -0.286593
v 0.299704 0.272558 -0.289356
v -0.300296 0.272558 0.291932
v -0.295913 0.276275 0.289169
v -0.295913 0.298641 0.289169
v -0.300296 0.302358 0.291932
v -0.300296 0.376858 0.291932
v -0.295913 0.380575 0.289169
v -0.295913 0.402940 0.289169
v -0.300296 0.406658 0.291932
v -0.300296 0.481157 0.291932
v -0.295913 0.484875 0.289169
v -0.295913 0.507240 0.289169
v -0.300296 0.510957 0.291932
v 0.299704 0.510957 0.291932
v 0.295322 0.507240 0.289169
v 0.295322 0.484875 0.289169
v 0.299704 0.481157 0.291932
v 0.299704 0.406658 0.291932
v 0.295322 0.402940 0.289169
v 0.295322 0.380575 0.289169
v 0.299704 0.376858 0.291932
v 0.299704 0.302358 0.291932
v 0.295322 0.298641 0.289169
v 0.295322 0.276275 0.289169
v 0.299704 0.272558 0.291932
v -0.300296 0.481157 -0.289356
v -0.295913 0.484875 -0.286593
v -0.295913 0.507240 -0.286593
v -0.300296 0.510957 -0.289356
v -0.300296 0.376858 -0.289356
v -0.295913 0.380575 -0.286593
v -0.295913 0.402940 -0.286593
v -0.300296 0.406658 -0.289356
v -0.300296 0.272558 -0.289356
v -0.295913 0.276275 -0.286593
v -0.295913 0.298641 -0.286593
v -0.300296 0.302358 -0.289356
v 0.279435 0.600603 0.269091
v 0.274955 0.596940 0.264043
v -0.275546 0.596940 0.264043
v -0.280026 0.600603 0.269091
v 0.279435 0.600603 -0.266515
v 0.274955 0.596940 -0.261467
v -0.275546 0.596940 -0.261467
v -0.280026 0.600603 -0.266515
vn 1.0000 -0.0000 -0.0000
vn -0.0000 -0.0000 1.0000
vn -0.0000 -0.0000 -1.0000
vn -0.0000 0.7071 0.7071
vn -0.0000 0.7071 -0.7071
vn -1.0000 -0.0000 -0.0000
vn 0.7691 0.6391 -0.0000
vn -0.7691 0.6391 -0.0000
vn -0.0000 1.0000 -0.0000
vn -0.4674 0.7941 0.3884
vn -0.4674 0.7941 -0.3884
vn 0.4674 0.7941 -0.3884
vn 0.4674 0.7941 0.3884
vn 0.4805 0.7808 -0.3993
vn 0.4805 0.7808 0.3993
vn -0.4805 0.7808 0.3993
vn -0.4805 0.7808 -0.3993
vn 0.7691 -0.0002 0.6391
vn 0.7691 -0.0002 -0.6391
vn -0.7691 -0.0002 -0.6391
vn -0.7691 -0.0002 0.6391
vn 0.7691 0.0002 0.6391
vn -0.7691 0.0002 0.6391
vn -0.7691 0.0002 -0.6391
vn 0.7691 0.0002 -0.6391
vn -0.0000 0.9999 -0.0108
vn -0.0121 0.9999 -0.0000
vn -0.0000 0.9999 0.0108
vn -0.0000 0.8011 0.5986
vn 0.6441 0.7650 -0.0000
vn -0.6441 0.7650 -0.0000
vn -0.0000 0.8011 -0.5985
vn -0.0000 -0.5965 -0.8026
vn -0.0000 0.5965 -0.8026
vn 0.6469 -0.7626 -0.0000
vn 0.6469 0.7626 -0.0000
vn -0.6469 -0.7626 -0.0000
vn -0.6469 0.7626 -0.0000
vn -0.0000 -0.5965 0.8026
vn -0.0000 0.5965 0.8026
vn -0.0000 0.8094 -0.5873
vn -0.6330 0.7741 -0.0000
vn 0.6330 0.7741 -0.0000
vn -0.0000 0.8094 0.5873
vn 0.0121 0.9999 -0.0000
vt 0.375000 0.504713
vt 0.621043 0.504734
vt 0.621043 0.745266
vt 0.375000 0.745287
vt 0.867846 0.508074
vt 0.867846 0.741926
vt 0.867846 0.741947
vt 0.867846 0.508053
vt 0.375000 0.760095
vt 0.621043 0.760140
vt 0.621043 0.989860
vt 0.375000 0.989905
vt 0.375000 0.260095
vt 0.621043 0.260140
vt 0.621043 0.489860
vt 0.375000 0.489905
vt 0.642294 0.503340
vt 0.857705 0.503340
vt 0.857750 0.503340
vt 0.642250 0.503340
vt 0.625000 0.762561
vt 0.625000 0.987439
vt 0.642294 0.746660
vt 0.857705 0.746660
vt 0.859920 0.747742
vt 0.640080 0.747742
vt 0.632154 0.741926
vt 0.632154 0.508074
vt 0.632154 0.508053
vt 0.632154 0.741947
vt 0.642250 0.746660
vt 0.857750 0.746660
vt 0.640080 0.502258
vt 0.859920 0.502258
vt 0.867846 0.741926
vt 0.867846 0.508074
vt 0.870163 0.507040
vt 0.870163 0.742960
vt 0.629837 0.742960
vt 0.629837 0.507040
vt 0.625000 0.262561
vt 0.625000 0.487439
vt 0.621043 0.489860
vt 0.627317 0.505864
vt 0.627317 0.744136
vt 0.621043 0.504734
vt 0.625000 0.005864
vt 0.625000 0.244136
vt 0.621043 0.245266
vt 0.621043 0.004734
vt 0.870163 0.507040
vt 0.872683 0.505864
vt 0.872683 0.744136
vt 0.637561 0.501082
vt 0.862439 0.501082
vt 0.629837 0.507040
vt 0.629837 0.742960
vt 0.640080 0.747742
vt 0.862439 0.748918
vt 0.637561 0.748918
vt 0.625000 0.001082
vt 0.625000 0.248918
vt 0.625000 0.497683
vt 0.625000 0.752317
vt 0.621043 0.004734
vt 0.375000 0.004713
vt 0.375000 0.000000
vt 0.621043 0.000000
vt 0.375000 0.245287
vt 0.621043 0.245266
vt 0.625000 0.000000
vt 0.625000 0.250000
vt 0.375000 0.250000
vt 0.625000 0.500000
vt 0.375000 0.500000
vt 0.625000 0.750000
vt 0.375000 0.750000
vt 0.625000 1.000000
vt 0.375000 1.000000
vt 0.571429 0.000000
vt 0.622772 0.000000
vt 0.622772 0.250000
vt 0.571429 0.250000
vt 0.555799 0.750000
vt 0.555799 0.500000
vt 0.508929 0.250000
vt 0.553571 0.250000
vt 0.553571 0.500000
vt 0.508929 0.500000
vt 0.428571 0.250000
vt 0.428571 0.500000
vt 0.446429 0.250000
vt 0.491071 0.250000
vt 0.491071 0.500000
vt 0.446429 0.500000
vt 0.430799 0.750000
vt 0.430799 0.500000
vt 0.493299 0.750000
vt 0.493299 0.500000
vt 0.493299 0.500000
vt 0.493299 0.750000
vt 0.446429 0.000000
vt 0.491071 0.000000
vt 0.446429 0.250000
vt 0.430799 1.000000
vt 0.508929 0.000000
vt 0.553571 0.000000
vt 0.493299 0.500000
vt 0.493299 0.250000
vt 0.493299 0.250000
vt 0.446429 0.750000
vt 0.491071 0.750000
vt 0.491071 1.000000
vt 0.446429 1.000000
vt 0.446429 0.500000
vt 0.446429 0.750000
vt 0.430799 0.250000
vt 0.430799 0.000000
vt 0.430799 0.000000
vt 0.625000 0.750000
vt 0.555799 0.250000
vt 0.555799 0.000000
vt 0.493299 1.000000
vt 0.493299 0.750000
vt 0.493299 1.000000
vt 0.444201 0.250000
vt 0.444201 0.500000
vt 0.506701 0.250000
vt 0.506701 0.500000
vt 0.569201 0.250000
vt 0.569201 0.500000
vt 0.555799 0.500000
vt 0.555799 0.250000
vt 0.444201 0.750000
vt 0.506701 0.750000
vt 0.569201 0.750000
vt 0.444201 0.000000
vt 0.506701 0.000000
vt 0.493299 0.000000
vt 0.569201 0.000000
vt 0.444201 1.000000
vt 0.506701 1.000000
vt 0.569201 1.000000
vt 0.555799 1.000000
vt 0.555799 0.750000
vt 0.493299 0.250000
vt 0.428571 0.000000
vt 0.428571 0.750000
vt 0.428571 1.000000
vt 0.508929 0.750000
vt 0.553571 0.750000
vt 0.553571 1.000000
vt 0.508929 1.000000
vt 0.428571 0.750000
vt 0.625000 0.250000
vt 0.571429 0.500000
vt 0.622772 0.500000
vt 0.622772 0.750000
vt 0.571429 0.750000
vt 0.622772 1.000000
vt 0.571429 1.000000
s 0
usemtl Material
f 8/1/1 43/2/1 48/3/1 5/4/1
f 21/5/1 20/6/1 9/7/1 12/8/1
f 6/9/2 47/10/2 34/11/2 1/12/2
f 4/13/3 39/14/3 44/15/3 7/16/3
f 29/17/2 22/18/2 11/19/2 14/20/2
f 46/21/4 35/22/4 34/11/4 47/10/4
f 26/23/5 19/24/5 18/25/5 27/26/5
f 25/27/6 30/28/6 13/29/6 16/30/6
f 19/24/3 26/23/3 15/31/3 10/32/3
f 22/18/4 29/17/4 32/33/4 23/34/4
f 20/35/7 21/36/7 24/37/7 17/38/7
f 30/28/8 25/27/8 28/39/8 31/40/8
f 38/41/5 41/42/5 44/43/5 39/14/5
f 42/44/7 45/45/7 48/3/7 43/46/7
f 36/47/8 37/48/8 40/49/8 33/50/8
f 17/38/9 24/51/9 37/52/9 36/53/9
f 23/34/9 32/33/9 41/54/9 38/55/9
f 31/56/9 28/57/9 45/45/9 42/44/9
f 27/58/9 18/25/9 35/59/9 46/60/9
f 13/29/9 14/20/9 11/19/9 12/8/9 9/7/9 10/32/9 15/31/9 16/30/9
f 34/61/10 35/61/10 36/47/10 33/50/10
f 38/62/11 39/62/11 40/49/11 37/48/11
f 42/63/12 43/63/12 44/43/12 41/42/12
f 46/21/13 47/10/13 48/64/13 45/64/13
f 18/25/14 19/24/14 20/35/14 17/38/14
f 22/18/15 23/34/15 24/37/15 21/36/15
f 30/28/16 31/40/16 32/33/16 29/17/16
f 26/23/17 27/26/17 28/39/17 25/27/17
f 11/19/18 22/18/18 21/5/18 12/8/18
f 19/24/19 10/32/19 9/7/19 20/6/19
f 35/59/9 18/25/9 17/38/9 36/53/9
f 23/34/9 38/55/9 37/52/9 24/51/9
f 25/27/20 16/30/20 15/31/20 26/23/20
f 45/45/9 28/57/9 27/58/9 46/60/9
f 13/29/21 30/28/21 29/17/21 14/20/21
f 31/56/9 42/44/9 41/54/9 32/33/9
f 5/4/22 48/3/22 47/10/22 6/9/22
f 33/65/23 2/66/23 1/67/23 34/68/23
f 39/14/24 4/13/24 3/69/24 40/70/24
f 43/2/25 8/1/25 7/16/25 44/15/25
f 2/66/6 33/65/6 40/70/6 3/69/6
usemtl Wood
f 49/67/6 50/71/6 52/72/6 51/73/6
f 51/73/3 52/72/3 56/74/3 55/75/3
f 55/75/1 56/74/1 54/76/1 53/77/1
f 53/77/2 54/76/2 50/78/2 49/79/2
f 59/73/3 60/72/3 64/74/3 63/75/3
f 57/67/6 58/71/6 60/72/6 59/73/6
f 63/75/1 64/74/1 62/76/1 61/77/1
f 61/77/2 62/76/2 58/78/2 57/79/2
f 65/67/6 66/71/6 68/72/6 67/73/6
f 67/73/3 68/72/3 72/74/3 71/75/3
f 71/75/1 72/74/1 70/76/1 69/77/1
f 69/77/2 70/76/2 66/78/2 65/79/2
f 75/73/3 76/72/3 80/74/3 79/75/3
f 73/67/6 74/71/6 76/72/6 75/73/6
f 79/75/1 80/74/1 78/76/1 77/77/1
f 77/77/2 78/76/2 74/78/2 73/79/2
f 144/80/6 120/81/6 118/82/6 160/83/6
f 147/84/9 123/85/9 96/85/9 102/84/9
f 164/86/3 157/87/3 124/88/3 125/89/3
f 83/73/3 165/90/3 132/91/3 81/75/3
f 168/92/3 161/93/3 128/94/3 129/95/3
f 155/96/9 131/97/9 88/97/9 98/96/9
f 151/98/9 127/99/9 92/100/9 100/101/9
f 114/74/26 117/72/26 176/72/26 173/74/26
f 136/102/6 137/103/6 161/93/6 168/104/6
f 134/105/9 155/96/9 98/96/9 103/105/9
f 117/72/27 119/71/27 172/71/27 176/72/27
f 140/106/6 141/107/6 157/87/6 164/86/6
f 127/108/9 162/109/9 89/110/9 92/100/9
f 153/111/2 152/112/2 137/113/2 136/114/2
f 129/115/1 128/94/1 152/112/1 153/116/1
f 166/117/9 134/118/9 103/119/9 85/117/9
f 171/78/3 170/120/3 109/76/3 110/78/3
f 158/121/9 142/122/9 107/122/9 93/121/9
f 131/97/9 166/117/9 85/117/9 88/97/9
f 138/123/9 151/124/9 100/101/9 105/125/9
f 119/78/28 116/76/28 169/76/28 172/78/28
f 86/126/3 87/127/3 88/97/3 85/117/3
f 90/128/3 91/129/3 92/100/3 89/110/3
f 94/130/3 95/131/3 96/132/3 93/133/3
f 87/127/1 97/134/1 98/96/1 88/97/1
f 91/129/1 99/135/1 100/101/1 92/100/1
f 95/131/1 101/136/1 102/84/1 96/85/1
f 104/137/6 86/126/6 85/117/6 103/119/6
f 106/138/6 90/128/6 89/110/6 105/139/6
f 108/140/6 94/130/6 93/121/6 107/122/6
f 97/134/2 104/141/2 103/105/2 98/96/2
f 99/135/2 106/142/2 105/125/2 100/101/2
f 101/136/2 108/143/2 107/144/2 102/145/2
f 162/146/9 138/139/9 105/139/9 89/110/9
f 84/67/6 133/147/6 165/90/6 83/73/6
f 82/77/2 156/148/2 133/149/2 84/79/2
f 142/144/9 147/145/9 102/145/9 107/144/9
f 149/150/2 148/151/2 141/152/2 140/153/2
f 81/75/1 132/91/1 156/154/1 82/77/1
f 123/132/9 158/133/9 93/133/9 96/132/9
f 125/89/1 124/88/1 148/151/1 149/150/1
f 174/74/2 175/155/2 112/72/2 111/74/2
f 121/156/1 113/157/1 115/158/1 145/159/1
f 160/83/3 118/82/3 113/157/3 121/156/3
f 145/159/2 115/158/2 120/160/2 144/161/2
f 170/76/6 174/74/6 111/74/6 109/76/6
f 175/72/1 171/71/1 110/71/1 112/72/1
f 116/76/29 119/78/29 120/160/29 115/158/29
f 114/74/30 116/76/30 115/158/30 113/157/30
f 119/71/31 117/72/31 118/82/31 120/81/31
f 117/72/32 114/74/32 113/157/32 118/82/32
f 168/92/33 129/95/33 130/127/33 167/126/33
f 132/91/34 165/90/34 166/117/34 131/97/34
f 164/86/33 125/89/33 126/129/33 163/128/33
f 128/94/34 161/93/34 162/109/34 127/108/34
f 160/83/33 121/156/33 122/131/33 159/130/33
f 124/88/34 157/87/34 158/133/34 123/132/34
f 129/115/35 153/116/35 154/134/35 130/127/35
f 156/154/36 132/91/36 131/97/36 155/96/36
f 125/89/35 149/150/35 150/135/35 126/129/35
f 152/112/36 128/94/36 127/99/36 151/98/36
f 121/156/35 145/159/35 146/136/35 122/131/35
f 148/151/36 124/88/36 123/85/36 147/84/36
f 136/102/37 168/104/37 167/126/37 135/137/37
f 165/90/38 133/147/38 134/118/38 166/117/38
f 140/106/37 164/86/37 163/128/37 139/138/37
f 161/93/38 137/103/38 138/139/38 162/146/38
f 144/80/37 160/83/37 159/130/37 143/140/37
f 157/87/38 141/107/38 142/122/38 158/121/38
f 153/111/39 136/114/39 135/141/39 154/134/39
f 133/149/40 156/148/40 155/96/40 134/105/40
f 149/150/39 140/153/39 139/142/39 150/135/39
f 137/113/40 152/112/40 151/124/40 138/123/40
f 145/159/39 144/161/39 143/143/39 146/136/39
f 141/152/40 148/151/40 147/145/40 142/144/40
f 170/120/41 171/78/41 172/78/41 169/76/41
f 174/74/42 170/76/42 169/76/42 173/74/42
f 171/71/43 175/72/43 176/72/43 172/71/43
f 175/155/44 174/74/44 173/74/44 176/72/44
f 116/76/45 114/74/45 173/74/45 169/76/45
